<?xml version="1.0" encoding="UTF-8" standalone="no"?>
<!-- Created with Inkscape (http://www.inkscape.org/) -->

<svg
   width="282.73096mm"
   height="148.0961mm"
   viewBox="0 0 282.73096 148.0961"
   version="1.1"
   id="svg5"
   xml:space="preserve"
   inkscape:export-filename="bitmap.svg"
   inkscape:export-xdpi="96"
   inkscape:export-ydpi="96"
   xmlns:inkscape="http://www.inkscape.org/namespaces/inkscape"
   xmlns:sodipodi="http://sodipodi.sourceforge.net/DTD/sodipodi-0.dtd"
   xmlns="http://www.w3.org/2000/svg"
   xmlns:svg="http://www.w3.org/2000/svg"><sodipodi:namedview
     id="namedview7"
     pagecolor="#ffffff"
     bordercolor="#000000"
     borderopacity="0.25"
     inkscape:showpageshadow="2"
     inkscape:pageopacity="0.0"
     inkscape:pagecheckerboard="0"
     inkscape:deskcolor="#d1d1d1"
     inkscape:document-units="mm"
     showgrid="false"
     inkscape:zoom="1.0544998"
     inkscape:cx="561.40363"
     inkscape:cy="165.95547"
     inkscape:window-width="1920"
     inkscape:window-height="1017"
     inkscape:window-x="-8"
     inkscape:window-y="-8"
     inkscape:window-maximized="1"
     inkscape:current-layer="g10" /><defs
     id="defs2"><linearGradient
       x1="0"
       y1="0"
       x2="1"
       y2="0"
       gradientUnits="userSpaceOnUse"
       gradientTransform="matrix(8014.42,0,0,-8014.42,0,2098.84)"
       spreadMethod="pad"
       id="linearGradient16"><stop
         style="stop-opacity:1;stop-color:#3076a1"
         offset="0"
         id="stop12" /><stop
         style="stop-opacity:1;stop-color:#639c38"
         offset="1"
         id="stop14" /></linearGradient><clipPath
       clipPathUnits="userSpaceOnUse"
       id="clipPath26"><path
         d="m 3149.33,1349.84 c 0,-515.508 -417.9,-933.41 -933.4,-933.41 -515.51,0 -933.41,417.902 -933.41,933.41 0,515.5 417.9,933.4 933.41,933.4 515.5,0 933.4,-417.9 933.4,-933.4 z"
         id="path24" /></clipPath><linearGradient
       x1="0"
       y1="0"
       x2="1"
       y2="0"
       gradientUnits="userSpaceOnUse"
       gradientTransform="matrix(-679.143,-2507.6,-2507.6,679.143,2531.01,2513.22)"
       spreadMethod="pad"
       id="linearGradient32"><stop
         style="stop-opacity:1;stop-color:#3076a1"
         offset="0"
         id="stop28" /><stop
         style="stop-opacity:1;stop-color:#639c38"
         offset="1"
         id="stop30" /></linearGradient><clipPath
       clipPathUnits="userSpaceOnUse"
       id="clipPath158"><path
         d="m 7724.37,4030.38 c 0,-573.23 -464.69,-1037.91 -1037.9,-1037.91 -573.22,0 -1037.91,464.68 -1037.91,1037.91 0,56.91 4.6,112.84 13.52,167.3 h 2048.78 c 8.92,-54.46 13.51,-110.39 13.51,-167.3 z"
         id="path156" /></clipPath><linearGradient
       x1="0"
       y1="0"
       x2="1"
       y2="0"
       gradientUnits="userSpaceOnUse"
       gradientTransform="matrix(999.077,1542.69,1542.69,-999.077,5952.24,2816.4)"
       spreadMethod="pad"
       id="linearGradient164"><stop
         style="stop-opacity:1;stop-color:#3076a1"
         offset="0"
         id="stop160" /><stop
         style="stop-opacity:1;stop-color:#639c38"
         offset="1"
         id="stop162" /></linearGradient><clipPath
       clipPathUnits="userSpaceOnUse"
       id="clipPath174"><path
         d="M 1697.13,1271.63 C 1574.3,818.5 1160.16,485.262 668.137,485.262 415.129,485.262 182.781,573.32 0,720.539 V 1229.7 c 0,0 571.852,-289.739 1697.13,41.93 z"
         id="path172" /></clipPath><linearGradient
       x1="0"
       y1="0"
       x2="1"
       y2="0"
       gradientUnits="userSpaceOnUse"
       gradientTransform="matrix(800.729,1236.42,1236.42,-800.729,208.472,215.85)"
       spreadMethod="pad"
       id="linearGradient182"><stop
         style="stop-opacity:1;stop-color:#f7fff9"
         offset="0"
         id="stop176" /><stop
         style="stop-opacity:1;stop-color:#f7fff9"
         offset="0.00518135"
         id="stop178" /><stop
         style="stop-opacity:1;stop-color:#f5f7ff"
         offset="1"
         id="stop180" /></linearGradient></defs><g
     inkscape:label="Layer 1"
     inkscape:groupmode="layer"
     id="layer1"
     transform="translate(-24.344205,-106.91968)"><g
       id="g10"
       transform="matrix(0.03527778,0,0,-0.03527778,24.344205,255.0158)"><path
         d="M 0,0 H 8014 V 4198 H 0 Z"
         style="fill:url(#linearGradient16);fill-opacity:1;fill-rule:nonzero;stroke:none"
         id="path18" /><g
         id="g20"><g
           id="g22"
           clip-path="url(#clipPath26)"><path
             d="m 3149.33,1349.84 c 0,-515.508 -417.9,-933.41 -933.4,-933.41 -515.51,0 -933.41,417.902 -933.41,933.41 0,515.5 417.9,933.4 933.41,933.4 515.5,0 933.4,-417.9 933.4,-933.4"
             style="fill:url(#linearGradient32);fill-opacity:1;fill-rule:nonzero;stroke:none"
             id="path34" /></g></g><path
         d="M 8014.42,1501.22 V 0 H 0 v 1229.7 c 0,0 571.852,-289.739 1697.13,41.93 34.78,10.18 70.04,21.06 105.89,32.51 1195.32,382.42 2210.9,660.41 2981.4,438.15 770.5,-222.26 2501.12,-969.931 3230,-241.07"
         style="fill:#ffffff;fill-opacity:1;fill-rule:nonzero;stroke:none"
         id="path36" /><path
         d="m 7540.34,2257.18 c -5.63,1.64 -9.59,2.66 -11.15,2.77 -2.94,0.18 -20.7,-6.15 -44.73,-15.39 -61.85,-23.71 -165.34,-66.54 -165.34,-66.54 0,0 -19.32,-78.99 -29.8,-110.08 v -0.02 c -2.24,-6.61 -4.07,-11.06 -5.22,-12.11 -6.61,-5.94 -101.75,-3.95 -163.19,0 -61.42,3.97 -68.03,3.97 -68.03,3.97 0,0 0.65,27.1 22.48,31.72 21.79,4.61 118.9,18.48 134.74,21.8 15.87,3.3 26.44,-1.32 31.06,14.53 2.43,8.33 7.24,37.28 12.87,65.63 2.34,11.86 4.86,23.58 7.39,33.68 0,0 0,0 0,0.02 2.95,11.78 5.94,21.28 8.8,26.17 7.29,12.47 39.52,42.78 63.32,64.28 0.05,0.02 0.05,0.05 0.05,0.05 12.81,11.55 23.19,20.57 25.93,22.89 7.81,6.61 70.19,24.47 70.19,24.47 0,0 40.02,-9.31 64.58,-14.66 5.95,-1.28 10.98,-2.35 14.34,-3 5.33,-1.05 18.27,-5.26 34.03,-10.66 0.03,-0.03 0.03,-0.03 0.03,-0.03 6.09,-13.3 2.71,-47.39 -2.35,-79.49"
         style="fill:#eea886;fill-opacity:1;fill-rule:nonzero;stroke:none"
         id="path38" /><path
         d="m 7359.26,2347.23 c 0,0 -81.42,-25.87 -98.84,-97.8 l 31.42,-11.61 67.42,109.41"
         style="fill:#e6435c;fill-opacity:1;fill-rule:nonzero;stroke:none"
         id="path40" /><path
         d="m 7078.91,2092.2 c 0,0 -26.58,8.89 -30.4,10.14 -3.82,1.24 -14.61,-1.84 -26.7,-6.45 -12.09,-4.61 -26.35,-16.25 -26.83,-18.42 -0.49,-2.17 -2,-4.15 0.16,-9.45 2.17,-5.3 7.78,-7.46 7.78,-7.46 0,0 0.11,-8.57 6.25,-12.19 0,0 0,-7.19 7.66,-10.15 0,0 -1.28,-7.67 4.46,-9.35 0,0 10.83,3.07 15.16,3.05 4.34,-0.03 34.04,14.75 54.05,25.6 0,0 9.59,9.8 -11.59,34.68"
         style="fill:#eea886;fill-opacity:1;fill-rule:nonzero;stroke:none"
         id="path42" /><path
         d="m 7043.9,2075.01 c 0,0 9.69,-8.98 13.69,-10.13 4,-1.15 -8.86,-28.02 -8.86,-28.02 0,0 -15.44,26.07 -4.83,38.15"
         style="fill:#cf8c6c;fill-opacity:1;fill-rule:nonzero;stroke:none"
         id="path44" /><path
         d="m 7435.35,1178.21 c 0,0 22.29,-61.65 36.21,-68.31 13.92,-6.66 35.09,-41.88 22.76,-59.19 -12.32,-17.31 -84.1,-59.87 -89.69,-71.89 -5.59,-12.019 -22.94,171.97 30.72,199.39"
         style="fill:#e8d9db;fill-opacity:1;fill-rule:nonzero;stroke:none"
         id="path46" /><path
         d="m 7414.11,1246.12 -24.24,-97.36 c 0,0 -22.62,46.62 -45.79,92.43 -5.81,11.49 -11.64,22.92 -17.17,33.56 -12.59,24.23 -23.54,44.35 -28.79,51.55 -16.82,23.01 -71.89,114.37 -92.75,139.5 -20.84,25.1 -5.03,51.78 -1.97,88.31 3.11,36.53 49.57,166.24 57.77,205.44 8.15,39.24 45.33,180.33 45.33,180.33 66.95,-30.29 107.61,-693.76 107.61,-693.76"
         style="fill:#de9d7d;fill-opacity:1;fill-rule:nonzero;stroke:none"
         id="path48" /><path
         d="m 7314.89,1933.89 c 0,0 2.97,-72.44 0.6,-91.31 -2.36,-18.86 -5.47,-126.49 -6.88,-178.44 -1.41,-51.94 -16.8,-152.41 -10.48,-173.5 6.32,-21.09 31.22,-141.54 38.78,-180.9 7.55,-39.35 22.19,-290.8 22.19,-290.8 0,0 32.8,-8.33 61.05,10.28 0,0 3.71,109.57 19.18,165.74 15.47,56.15 15,157.64 -5.01,221.68 -20.02,64.02 16.94,157.04 42.45,208.42 25.52,51.39 66.03,254.88 63.44,281.22 -2.59,26.34 -20.94,80.49 -56.63,122.49 -35.7,42.01 -168.69,-94.88 -168.69,-94.88"
         style="fill:#eea886;fill-opacity:1;fill-rule:nonzero;stroke:none"
         id="path50" /><path
         d="m 7420.15,1029.22 c 0,0 -27.13,-5.95 -40.73,-3.4 -13.59,2.56 -23.59,-1.82 -23.59,-1.82 0,0 -28.69,-51.07 -55.98,-64.441 -27.3,-13.36 -93.95,-34.68 -86.19,-61.539 7.75,-26.848 84.98,-18.989 113.17,-5.469 28.19,13.519 99,15.289 106.43,42.39 7.44,27.11 -15.93,80.869 -13.11,94.279"
         style="fill:#e8d9db;fill-opacity:1;fill-rule:nonzero;stroke:none"
         id="path52" /><path
         d="m 7295.05,1916.3 c 0,0 -11.7,-65.49 -16.1,-82.96 -4.38,-17.48 -61.5,-190.06 -61.5,-190.06 0,0 118.69,-114.65 287.26,-87.65 0,0 54.42,221.35 45.77,325.59 -6.27,75.51 -40.03,122.31 -54.65,143.38 -14.63,21.09 -200.78,-108.3 -200.78,-108.3"
         style="fill:#e6435c;fill-opacity:1;fill-rule:nonzero;stroke:none"
         id="path54" /><path
         d="m 7344.11,1241.2 -0.03,-0.01 c -5.81,11.49 -11.64,22.92 -17.17,33.56 1.7,13.61 -7.21,119.76 -7.21,119.76 18.89,-57.1 24.41,-153.31 24.41,-153.31"
         style="fill:#c78564;fill-opacity:1;fill-rule:nonzero;stroke:none"
         id="path56" /><path
         d="m 7395.94,2638.45 c 0,0 28.23,26.67 64.1,-4.48 35.89,-31.15 26.86,-68.76 32.3,-102.35 5.44,-33.6 -14.92,-113.89 3.7,-144.41 18.62,-30.53 6,-50.64 6,-50.64 0,0 -94.76,-44.33 -111.48,107.65 -16.72,151.99 5.38,194.23 5.38,194.23"
         style="fill:#0c3454;fill-opacity:1;fill-rule:nonzero;stroke:none"
         id="path58" /><path
         d="m 7450.7,2400.65 c 0,0 2.02,-18.39 9.17,-25.31 7.13,-6.93 66.17,-17.74 80.99,-35.66 14.81,-17.93 -6.79,-117.36 -11.94,-144.16 -5.14,-26.8 -31.55,-83.77 -29.83,-103.02 1.74,-19.24 5.4,-65.59 11.07,-80.17 5.67,-14.58 30.23,-80.19 34.3,-92.08 0,0 -147.86,-44.2 -251.54,-15.7 0,0 5.83,92.54 2.7,112.85 -3.11,20.31 -11.8,95.07 -12.08,115.93 -0.28,20.85 -33.12,39.85 -20.61,77.63 10.99,33.17 64.73,98.74 74.62,111.66 9.9,12.92 34.72,38.18 34.72,38.18 0,0 12.89,34.04 8.04,54.95 l 68.3,38.08 c 0,0 -0.57,-40.44 2.09,-53.18"
         style="fill:#e6435c;fill-opacity:1;fill-rule:nonzero;stroke:none"
         id="path60" /><path
         d="m 7543.71,2326.05 c -5.76,4.28 -21.71,30.38 -49.34,5.68 -27.64,-24.69 -44.24,-62.71 -51.02,-80.87 -6.77,-18.15 -46.86,-102.08 -54.52,-115.72 -7.65,-13.64 -18.63,-17.83 -41.47,-29.36 -22.85,-11.54 -152.9,-94.57 -163.1,-98.98 l 22.28,-29.6 c 0,0 177.42,64.17 196.75,78.39 19.33,14.23 33.41,29.48 55.72,65.06 22.31,35.57 84.35,120.18 90.53,134.67 6.18,14.48 24.55,48.17 -5.83,70.73"
         style="fill:#eea987;fill-opacity:1;fill-rule:nonzero;stroke:none"
         id="path62" /><path
         d="m 7426.12,2237.4 c 0,0 58.63,-21.07 86.53,-50.66 0,0 87.15,100.61 31.92,150.9 -45.17,41.11 -93.92,-60.8 -118.45,-100.24"
         style="fill:#e6435c;fill-opacity:1;fill-rule:nonzero;stroke:none"
         id="path64" /><path
         d="m 7459.87,2375.33 c 0,0 -39.98,-69.27 -90.55,-72.53 -50.59,-3.26 2.96,58.01 2.96,58.01 0,0 2.9,7 5.33,17.52 1.08,4.64 2.08,9.99 2.66,15.75 0.02,0 0.02,0 0.02,0 0.71,6.83 0.9,14.24 0.01,21.66 l 69.72,49.65 c 0,0 -3.62,-74.55 9.85,-90.06"
         style="fill:#eea987;fill-opacity:1;fill-rule:nonzero;stroke:none"
         id="path66" /><path
         d="m 7390.68,2394.57 c -12.04,-1.82 -46.14,-4.22 -77.13,69.53 -37.87,90.09 -2.65,147.2 33.69,163.42 36.34,16.22 73.94,9.63 102.71,-35.77 0,0 21.46,-35.56 11.25,-108.1 -10.23,-72.54 -57.63,-87.13 -70.52,-89.08"
         style="fill:#eea987;fill-opacity:1;fill-rule:nonzero;stroke:none"
         id="path68" /><path
         d="m 7388.7,2572.28 c 0,0 -50.5,-12.84 -84.51,-93.17 0,0 -38.46,81.65 12.23,131.81 50.7,50.17 97.77,24.18 115.18,9.78 0,0 21.22,-0.83 29.15,-39.29 7.94,-38.46 44.37,-90.76 -7.34,-129.13 0,0 -2.38,44.05 -9.29,53.17 -6.93,9.13 -23.04,-0.96 -55.42,66.83"
         style="fill:#0c3454;fill-opacity:1;fill-rule:nonzero;stroke:none"
         id="path70" /><path
         d="m 7438.08,2522.04 c 1.32,7.15 7.83,11.18 13.05,4.75 5.21,-6.43 5.87,-35.07 -3.88,-40.06 -9.73,-4.98 -11.83,20.78 -9.17,35.31"
         style="fill:#eea987;fill-opacity:1;fill-rule:nonzero;stroke:none"
         id="path72" /><path
         d="m 7433.45,2419.02 c 0,0 -13.43,-38.19 -55.84,-40.69 1.08,4.64 2.08,9.99 2.66,15.75 0.02,0 0.02,0 0.02,0 0,0 26.47,-3.5 53.16,24.94"
         style="fill:#a77860;fill-opacity:1;fill-rule:nonzero;stroke:none"
         id="path74" /><path
         d="m 3855.75,2475.58 16.31,-72.57 406.15,91.27 -16.32,72.58 -406.14,-91.28"
         style="fill:#bcc0cf;fill-opacity:1;fill-rule:nonzero;stroke:none"
         id="path76" /><path
         d="m 3943.74,2084.04 -16.31,72.58 406.15,91.27 16.31,-72.57 -406.15,-91.28"
         style="fill:#bcc0cf;fill-opacity:1;fill-rule:nonzero;stroke:none"
         id="path78" /><path
         d="m 3995.51,2662.63 -109.48,-24.61 154.58,-687.85 109.48,24.6 -154.58,687.86"
         style="fill:#dbdff0;fill-opacity:1;fill-rule:nonzero;stroke:none"
         id="path80" /><path
         d="m 5433.03,2550.46 c 0,0 10.66,29.06 12.14,33.54 1.5,4.49 -2.05,17.21 -7.38,31.44 -5.33,14.25 -18.92,31.11 -21.47,31.69 -2.56,0.6 -4.86,2.38 -11.11,-0.12 -6.25,-2.5 -9.16,-9.57 -9.16,-9.57 0,0 -9.46,0.64 -13.75,-6.57 0,0 -8.49,0.23 -12.03,-8.75 0,0 -9.27,1.16 -11.28,-5.58 0,0 3.51,-12.76 3.47,-17.85 -0.06,-5.09 13.15,-37.19 25.76,-60.79 0,0 15.4,-12.17 44.81,12.56"
         style="fill:#eea886;fill-opacity:1;fill-rule:nonzero;stroke:none"
         id="path82" /><path
         d="m 5413.08,2589.62 c 0,0 -10.63,-11.33 -12.01,-16.02 -1.38,-4.7 -32.9,10.62 -32.9,10.62 0,0 30.78,17.96 44.91,5.4"
         style="fill:#cf8c6c;fill-opacity:1;fill-rule:nonzero;stroke:none"
         id="path84" /><path
         d="m 6090.98,2618.89 c 0,0 -17.21,25.71 -19.71,29.73 -2.51,4 -2.07,17.19 -0.24,32.29 1.83,15.1 11.05,34.68 13.39,35.86 2.35,1.17 4.17,3.46 10.83,2.5 6.67,-0.97 10.8,-7.15 10.8,-7.15 0,0 9.44,3.03 15.31,-2.97 0,0 8.66,1.96 14.22,-5.93 0,0 8.22,3.42 11.78,-2.67 0,0 -0.42,-13.21 0.84,-18.15 1.26,-4.94 -4.02,-39.25 -10.7,-65.16 0,0 -12.1,-15.46 -46.52,1.65"
         style="fill:#eea886;fill-opacity:1;fill-rule:nonzero;stroke:none"
         id="path86" /><path
         d="m 6101.14,2661.64 c 0,0 13.01,-8.5 15.45,-12.74 2.45,-4.24 29.45,18.09 29.45,18.09 0,0 -34.13,10.19 -44.9,-5.35"
         style="fill:#cf8c6c;fill-opacity:1;fill-rule:nonzero;stroke:none"
         id="path88" /><path
         d="m 5433.65,956.199 c 0,0 -13.11,-24.457 -21.68,-34.16 -8.56,-9.707 -41.36,-27.07 -41.54,-55.891 -0.19,-31.257 55.29,-22.578 76.99,-21.437 21.7,1.141 23.34,17.84 32.47,35.539 9.14,17.699 18.35,14.711 20.06,28.969 1.72,14.281 -8.85,46.98 -8.85,46.98 h -57.45"
         style="fill:#202338;fill-opacity:1;fill-rule:nonzero;stroke:none"
         id="path90" /><path
         d="m 6056.66,937.012 c 0,0 26.73,-29.852 53.87,-36.102 27.14,-6.262 46.14,-14.238 46.34,-31.359 0.21,-17.129 -78.12,-28.422 -109.17,-11.153 -46.37,25.774 -51.07,18.004 -56.21,30.883 -5.15,12.891 6.17,47.34 5.84,51.438 -0.41,5.062 59.33,-3.707 59.33,-3.707"
         style="fill:#202338;fill-opacity:1;fill-rule:nonzero;stroke:none"
         id="path92" /><path
         d="m 6053.66,951.289 c 0,0 3.52,-13.98 3,-14.277 -0.53,-0.301 -61.17,-7.52 -59.33,3.707 1.48,9.101 3.61,18.98 3.61,18.98 l 52.72,-8.41"
         style="fill:#81807e;fill-opacity:1;fill-rule:nonzero;stroke:none"
         id="path94" /><path
         d="m 5490.35,965.641 c 0,0 2.54,-13.34 2.05,-13.661 -0.49,-0.332 -61.5,-11.218 -61.15,-0.14 0.28,8.801 5.62,19.051 5.62,19.051 l 53.48,-5.25"
         style="fill:#81807e;fill-opacity:1;fill-rule:nonzero;stroke:none"
         id="path96" /><path
         d="m 5998.51,1788.41 c 0,0 45.99,-206.73 57.46,-280.04 13.41,-85.72 27.01,-138.88 30.75,-183.25 4.7,-55.81 -27.38,-355.44 -24.08,-371.761 3.29,-16.308 -73.06,-4.5 -73.06,-4.5 0,0 -11.01,354.841 -25.02,414.271 -13.05,55.34 -87.99,297.44 -99.9,282.33 -11.9,-15.11 -162.78,-309.27 -171.59,-352.92 -8.82,-43.64 -181.83,-352.61 -181.83,-352.61 0,0 -69.17,-1.86 -85.34,11.812 0,0 123,298.978 139.57,378.808 6.36,30.61 112.89,359.68 162.48,497.65 26.22,72.92 270.56,-39.79 270.56,-39.79"
         style="fill:#3c3d47;fill-opacity:1;fill-rule:nonzero;stroke:none"
         id="path98" /><path
         d="m 5624.38,2254.19 c -11.48,2.96 67.82,35.91 98.29,49.95 14.1,6.51 24.86,11.11 27.12,11.41 7.13,0.94 95.98,-1.43 95.98,-1.43 0,0 12.96,-3.47 26.31,-8.52 22.78,-8.61 58.28,-22.08 83.78,-32.14 8.26,-3.24 18.59,-7.69 27.18,-11.5 1.05,-30.08 1.5,-62.35 1.33,-96.91 0,0 0.58,-75.43 5.38,-151.31 -2.78,-17.45 0.66,-57.3 0.66,-57.3 1.52,-37.93 8.41,-76.5 11,-98.14 4.09,-34.03 12.13,-82.32 12.13,-82.32 l -41.71,-20.48 -188.16,-11.2 -59.96,11.71 c 0,0 -6.92,151.46 -10.82,195.35 -3.75,42.3 -16.21,135.64 -18.39,141.88 0,0 -3.92,143.92 -70.12,160.95"
         style="fill:#dbd8e3;fill-opacity:1;fill-rule:nonzero;stroke:none"
         id="path100" /><path
         d="m 6006.77,1791.64 c 0,0 -128.42,-19.9 -242.3,-16.69 l 2.56,-37.12 c 0,0 169.58,-4.49 247.48,24.16 l -7.74,29.65"
         style="fill:#27282e;fill-opacity:1;fill-rule:nonzero;stroke:none"
         id="path102" /><path
         d="m 6055.26,1684.58 c 0,0 -48.39,208.35 -58.77,260.37 -0.59,64.94 -6.37,165.54 -8.72,203.74 -0.6,9.7 -0.98,15.38 -0.98,15.38 0.1,11.07 -1.08,27.33 -2.64,45.25 v 0.29 c 0,0.1 0,0.2 0,0.2 -0.2,2.16 -0.4,4.41 -0.6,6.57 -0.59,7.15 -1.27,14.49 -2.05,21.84 -0.78,8.62 -1.67,17.24 -2.54,25.47 -2.17,21.74 -4.02,41.24 -4.41,52.79 0,0 -1.09,-0.29 -2.94,-0.68 -14.41,-3.24 -76.9,-16.46 -111.19,-6.08 0,0 0,0 0.11,-0.1 1.47,-2.94 24.97,-51.23 47.6,-157.11 9.01,-41.92 25.18,-112.45 38.3,-184.74 5.2,-28.5 12.44,-57.1 19.49,-84.24 6.87,-27.03 13.53,-52.4 17.34,-74.25 0.79,-4.5 1.67,-9.6 2.45,-15.18 0.29,-1.66 0.58,-3.43 0.88,-5.29 1.08,-7.45 2.25,-15.67 3.53,-24.29 0.39,-3.14 0.78,-6.27 1.27,-9.51 6.56,-48.38 12.93,-103.04 12.93,-103.04 l 21.85,8.72 20.27,8.13 c 7.44,2.64 11.27,9.3 8.82,15.76"
         style="fill:#5e6070;fill-opacity:1;fill-rule:nonzero;stroke:none"
         id="path104" /><path
         d="m 5459.6,2292.72 c -14.08,15.24 -86.6,232.39 -83.81,244.69 2.19,9.72 61.6,15.98 61.6,15.98 0,0 53.71,-120.12 81.96,-201.83 10.31,-29.85 93.81,-53.4 81.86,-51.08 -9.86,1.92 77.2,-14.36 105.99,-0.66 5.26,2.51 28.5,10.08 33.22,12.24 6.75,-6.55 48.44,-53.39 76.15,-232.69 4.67,-30.22 0.97,-95.15 -0.84,-148.07 -1.94,-56.44 -5.33,-100.63 -6.81,-147.83 -2.9,-92.99 -4,-152.12 -4,-152.12 l -94.05,33.62 c -15.38,6.41 -39.08,21.7 -34.57,37.75 17.15,60.97 36.91,164.49 33.33,216.71 0,0 -30.24,212.08 -40.3,239.63 0,0 -178.02,99.33 -209.73,133.66"
         style="fill:#5e6070;fill-opacity:1;fill-rule:nonzero;stroke:none"
         id="path106" /><path
         d="m 5754.79,2540.94 c 0,0 78.92,58.93 108.13,-60.43 29.19,-119.35 11.96,-137.44 -51.16,-138.2 -63.12,-0.76 -89.93,72.1 -108.07,105.59 -18.14,33.51 23.65,79.35 51.1,93.04"
         style="fill:#eea886;fill-opacity:1;fill-rule:nonzero;stroke:none"
         id="path108" /><path
         d="m 5733.24,2393.16 c 0,0 -9.53,31.37 2.68,38.12 12.22,6.76 24.33,-9.43 24.33,-9.43 l 10.36,3.67 c 0,0 -18.82,29.08 -8.51,40.08 10.32,10.98 86.79,26.57 92.98,40.07 6.2,13.48 -13.75,71.8 -48.38,73.45 -22.16,1.05 -81.52,-3.47 -107.53,-45.33 0,0 -30.54,-9.64 -24.39,-35.01 6.14,-25.36 42.77,-91.72 58.46,-105.62"
         style="fill:#d88a51;fill-opacity:1;fill-rule:nonzero;stroke:none"
         id="path110" /><path
         d="m 5746.79,2449 c -6.98,9.22 -28.69,1.39 -21.57,-14.39 7.11,-15.77 32.85,-35.71 38.78,-28.8 5.94,6.92 -7.6,30.48 -17.21,43.19"
         style="fill:#eea886;fill-opacity:1;fill-rule:nonzero;stroke:none"
         id="path112" /><path
         d="m 5758.6,2306.72 c 0,0 7.65,7.27 -8.23,67.77 -4.25,16.19 87.85,-13.62 87.85,-13.62 0,0 0.12,-7.27 0.57,-16.47 0.17,-3.33 0.38,-6.93 0.65,-10.5 0.2,-2.83 0.45,-5.64 0.74,-8.33 h 0.01 c 0.31,-3.08 0.68,-5.99 1.14,-8.54 0.62,-3.63 3.21,-9.89 4.09,-11.61 4.7,-9.07 -52.07,-20.13 -86.82,1.3"
         style="fill:#eea987;fill-opacity:1;fill-rule:nonzero;stroke:none"
         id="path114" /><path
         d="m 5822.18,2279.21 17.82,-20.79 c 0,0 -8.67,-13.45 -26.29,-5.17 l 8.47,25.96"
         style="fill:#285173;fill-opacity:1;fill-rule:nonzero;stroke:none"
         id="path116" /><path
         d="m 5835.41,2257.22 c 0,0 76.54,-228.74 76.56,-410.9 l -17.88,-37.27 -21.63,36.26 c 0,0 -27.57,323.94 -50.28,411.58 l 13.23,0.33"
         style="fill:#285173;fill-opacity:1;fill-rule:nonzero;stroke:none"
         id="path118" /><path
         d="m 5838.25,2300.84 -16.07,-21.63 c 0,0 -28.4,3.5 -37.63,17.57 -9.24,14.07 53.7,4.06 53.7,4.06"
         style="fill:#eea987;fill-opacity:1;fill-rule:nonzero;stroke:none"
         id="path120" /><path
         d="m 5841.01,2319 c 0,0 -0.96,-15.71 -18.83,-39.79 l 23.2,-27.05 7.4,59.93 -11.77,6.91"
         style="fill:#c4c1cc;fill-opacity:1;fill-rule:nonzero;stroke:none"
         id="path122" /><path
         d="m 5759.64,2329.4 c 0,0 33.44,-40.94 62.54,-50.19 l -10.93,-33.5 -65.24,68.63 13.63,15.06"
         style="fill:#c4c1cc;fill-opacity:1;fill-rule:nonzero;stroke:none"
         id="path124" /><path
         d="m 6159.16,2391.44 c 16.05,37.35 -5.43,237.56 -5.43,237.56 l -67.01,-8.34 c 0,0 -1.3,-48.35 2.48,-135.5 1.08,-24.74 -0.83,-57.81 -2.69,-61.7 -1.88,-3.88 -80.24,-94.66 -109.21,-105.14 -11.35,-4.1 -40.64,-23.72 -58.95,-45.06 -18.31,-21.32 -6.84,-48.03 -6.84,-48.03 45.43,-50.79 117.69,24.3 117.69,24.3 0,0 107.46,89.55 129.96,141.91"
         style="fill:#5e6070;fill-opacity:1;fill-rule:nonzero;stroke:none"
         id="path126" /><path
         d="m 6062.25,2286.69 c 0,0 -78.75,-95.41 -74.55,-148.06 2.09,-26.37 -37.05,81.04 -37.05,81.04 l 111.6,67.02"
         style="fill:#5e6070;fill-opacity:1;fill-rule:nonzero;stroke:none"
         id="path128" /><path
         d="m 5840.18,2325.57 c -54.15,-1.09 -76.04,32.79 -76.04,32.79 31.19,-25.35 74.65,-13.96 74.65,-13.96 0.17,-3.33 0.38,-6.93 0.65,-10.5 0.2,-2.83 0.45,-5.64 0.74,-8.33"
         style="fill:#a77860;fill-opacity:1;fill-rule:nonzero;stroke:none"
         id="path130" /><path
         d="m 8014.42,2114.7 v -27.82 c -77.49,-18.51 -157.71,-44.17 -240.48,-76.89 -78.16,-30.95 -161.03,-50.54 -237.15,-62.98 -0.67,-0.1 -1.37,-0.2 -1.95,-0.3 -1.56,-0.19 -3.04,-0.49 -4.51,-0.68 -84.83,-13.53 -160.75,-18.13 -211.18,-19.49 -1.37,-0.1 -2.64,-0.1 -4.02,-0.1 -1.86,-0.1 -3.83,-0.1 -5.68,-0.2 -2.26,0 -4.42,-0.1 -6.56,-0.1 -3.04,0 -5.98,-0.1 -8.82,-0.1 -5.09,-0.1 -9.7,-0.1 -13.81,-0.1 -15.58,0 -24.49,0.4 -24.98,0.4 -30.86,0.69 -59.16,8.03 -85.91,20.67 -24.09,11.35 -47.01,27.03 -69.54,46.13 -15.87,13.51 -31.54,28.7 -47.22,45.25 -0.78,0.78 -1.46,1.48 -2.16,2.26 -1.07,1.07 -2.14,2.25 -3.12,3.33 -1.38,1.46 -2.65,2.84 -3.92,4.31 -10.29,11.17 -20.67,22.82 -31.05,34.97 -1.48,1.76 -2.94,3.52 -4.41,5.29 -17.14,20.08 -34.48,41.34 -52.6,63.48 -118.32,144.66 -265.56,324.7 -535.8,445.48 -82.68,36.93 -173.28,62.3 -271.53,76.11 -1.28,0.19 -2.64,0.39 -3.92,0.5 -11.26,1.66 -22.62,3.02 -34.18,4.2 -4.21,0.49 -8.63,0.98 -12.93,1.37 -4.61,0.49 -9.21,0.89 -13.82,1.28 -3.92,0.39 -7.93,0.68 -11.94,0.98 -185.82,14.49 -396.81,-9.31 -631.7,-71.31 -4.41,-1.18 -8.82,-2.26 -13.23,-3.43 v -0.1 c -2.45,-0.59 -4.89,-1.28 -7.44,-1.96 -5.78,-1.56 -11.66,-3.23 -17.54,-4.79 -10.87,-3.04 -21.65,-6.18 -32.61,-9.41 -1.27,-0.29 -2.55,-0.69 -3.82,-1.08 -56.43,-16.46 -114.32,-35.07 -173.38,-55.73 -15.48,-5.4 -27.63,-9.7 -35.66,-12.15 -74.83,-23.51 -137.43,-36.44 -186.5,-43.29 -10.28,-1.48 -20.08,-2.65 -29.19,-3.63 -10.58,-1.08 -20.37,-1.96 -29.38,-2.55 -43.99,-2.84 -67.98,-0.09 -70.14,0.2 l 3.33,26.93 c 0.49,0 21.45,-2.34 60.73,-0.1 8.82,0.59 18.71,1.38 29.48,2.36 9.02,0.98 18.81,2.16 29.19,3.52 48.2,6.57 110.2,19.11 184.36,42.42 7.64,2.35 19.59,6.56 34.77,11.95 38,13.32 99.42,34.77 176.8,57.5 19.49,5.68 40.07,11.45 61.52,17.24 1.85,0.58 3.62,1.08 5.48,1.47 78.95,21.05 169.75,41.53 266.82,56.03 138.42,20.66 267.42,26.05 386.24,16.16 1.37,0 2.64,-0.1 4.01,-0.3 21.65,-1.76 42.9,-4.11 63.76,-7.05 102.95,-14.01 197.68,-40.16 283.48,-78.56 276.23,-123.42 425.61,-306.2 545.69,-453.03 20.09,-24.59 39.1,-47.8 57.41,-69.26 2.06,-2.34 4.12,-4.69 6.08,-7.05 4.5,-5.18 8.91,-10.18 13.32,-15.08 0.98,-1.18 2.05,-2.35 3.03,-3.53 4.8,-5.28 9.51,-10.38 14.21,-15.37 2.44,-2.75 4.99,-5.39 7.73,-8.04 15.67,-16.45 31.25,-31.15 47.02,-43.79 22.34,-18.11 45.06,-32.13 68.96,-41.33 19.69,-7.54 40.16,-11.85 62.11,-12.34 0.67,0 14.88,-0.49 39.27,-0.19 11.37,0.09 24.98,0.39 40.46,0.97 5.38,0.3 11.17,0.49 17.04,0.78 45.35,2.26 103.34,6.96 166.81,16.76 1.77,0.29 3.62,0.59 5.39,0.78 0.49,0.1 0.98,0.2 1.37,0.3 76.01,12.05 159.17,31.44 237.44,62.29 86.2,34.09 169.76,60.54 250.47,79.54"
         style="fill:#bcc0cf;fill-opacity:1;fill-rule:nonzero;stroke:none"
         id="path132" /><path
         d="m 6083.79,2712.83 c 0,0 -3.69,-38.38 2.42,-39.74 6.11,-1.36 9.18,1.85 9.18,1.85 l 5.65,-16.49 c 0,0 9.9,-8.81 16.59,4.55 0,0 8.4,-9.18 13.33,4.49 0,0 8.24,-3.59 11.65,2.34 3.39,5.93 4.75,30.72 4.75,30.72 0,0 -2.07,5.36 -11.78,4.21 0,0 -4.87,7.88 -13.91,5.75 0,0 -4.9,5.71 -14.65,3.32 0,0 -11.9,11.85 -22.6,2.94 0,0 -0.48,-2.32 -0.63,-3.94"
         style="fill:#db9c7c;fill-opacity:1;fill-rule:nonzero;stroke:none"
         id="path134" /><path
         d="m 6071.25,2649.83 c 0,0 14.27,22.29 27.41,31.04 2.97,1.98 6.21,3.35 9.17,1.34 2.95,-2.01 3.79,-8.85 -1.9,-18.82 -5.68,-9.97 -8.47,-25.46 -8.47,-25.46 0,0 -8.84,-8.53 -26.21,11.9"
         style="fill:#eea886;fill-opacity:1;fill-rule:nonzero;stroke:none"
         id="path136" /><path
         d="m 5417.87,2643.45 c 0,0 12.62,-36.42 7.01,-39.19 -5.61,-2.76 -9.35,-0.37 -9.35,-0.37 l -1.6,-17.35 c 0,0 -7.55,-10.89 -17.21,0.51 0,0 -5.99,-10.9 -14.01,1.22 0,0 -7.16,-5.43 -11.87,-0.47 -4.69,4.96 -11.85,28.74 -11.85,28.74 0,0 0.73,5.69 10.44,6.86 0,0 2.89,8.81 12.19,8.88 0,0 3.39,6.69 13.43,6.67 0,0 8.78,14.33 21.27,8.18 0,0 1.02,-2.14 1.55,-3.68"
         style="fill:#db9c7c;fill-opacity:1;fill-rule:nonzero;stroke:none"
         id="path138" /><path
         d="m 5444.91,2585.19 c 0,0 -19.12,18.29 -33.96,23.7 -3.35,1.22 -6.82,1.8 -9.22,-0.86 -2.4,-2.65 -1.61,-9.49 6.27,-17.84 7.88,-8.35 14.24,-22.74 14.24,-22.74 0,0 10.61,-6.22 22.67,17.74"
         style="fill:#eea886;fill-opacity:1;fill-rule:nonzero;stroke:none"
         id="path140" /><path
         d="m 4643.19,2765.38 -216.44,-48.65 143.37,-637.94 216.43,48.65 c 121.84,27.38 198.42,148.35 171.03,270.19 l -44.2,196.71 c -27.38,121.84 -148.35,198.41 -270.19,171.04"
         style="fill:#dbdff0;fill-opacity:1;fill-rule:nonzero;stroke:none"
         id="path142" /><path
         d="m 4888.47,2571.78 57.07,12.82 36.96,-164.42 -57.08,-12.82 -36.95,164.42"
         style="fill:#dbdff0;fill-opacity:1;fill-rule:nonzero;stroke:none"
         id="path144" /><path
         d="m 6998.1,2078.8 c 0,0 30.91,10.94 33.29,6.17 2.37,-4.76 0.36,-7.94 0.36,-7.94 l 14.77,-1.27 c 0,0 9.31,-6.37 -0.35,-14.64 0,0 9.3,-5.04 -0.96,-11.93 0,0 4.66,-6.05 0.46,-10.07 -4.19,-4.04 -24.38,-10.25 -24.38,-10.25 0,0 -4.84,0.61 -5.88,8.86 0,0 -7.5,2.4 -7.62,10.3 0,0 -5.71,2.86 -5.74,11.4 0,0 -12.22,7.38 -7.07,18.04 0,0 1.81,0.88 3.12,1.33"
         style="fill:#db9c7c;fill-opacity:1;fill-rule:nonzero;stroke:none"
         id="path146" /><path
         d="m 7047.5,2102.09 c 0,0 -15.45,-16.34 -19.97,-28.98 -1.02,-2.86 -1.49,-5.81 0.78,-7.84 2.26,-2.02 8.07,-1.31 15.14,5.43 7.05,6.74 19.26,12.22 19.26,12.22 0,0 5.22,9.06 -15.21,19.17"
         style="fill:#eea886;fill-opacity:1;fill-rule:nonzero;stroke:none"
         id="path148" /><path
         d="m 7212.75,2022.58 c 0,0 -24.05,-13.97 -30.92,-13.3 -6.87,0.68 -16.52,-0.38 -22.87,-0.83 -6.35,-0.45 -23.85,3.72 -30.16,1.17 -2.57,-1.04 -15.85,-12.8 -21.31,-14.43 -5.48,-1.62 -16.95,-3.75 -15.46,-7.81 1.48,-4.06 12.21,-4.6 12.21,-4.6 0,0 -4.9,-1.75 -4.86,-5.73 0.07,-7.74 5.02,-9.63 5.02,-9.63 0,0 -3.86,-4.59 -2.9,-7.77 2.1,-6.99 6.95,-8.7 6.95,-8.7 0,0 -1.29,-4.08 1.31,-8.39 3.34,-5.51 10.56,-5.23 10.56,-5.23 0,0 2.32,-7.84 7.51,-8.09 5.19,-0.25 10.04,1.83 13.65,2.97 3.99,1.28 37.61,17.3 55.99,37.04 18.38,19.76 40.87,29.13 40.87,29.13 l -25.59,24.2"
         style="fill:#eea886;fill-opacity:1;fill-rule:nonzero;stroke:none"
         id="path150" /><g
         id="g152"><g
           id="g154"
           clip-path="url(#clipPath158)"><path
             d="m 7724.37,4030.38 c 0,-573.23 -464.69,-1037.91 -1037.9,-1037.91 -573.22,0 -1037.91,464.68 -1037.91,1037.91 0,56.91 4.6,112.84 13.52,167.3 h 2048.78 c 8.92,-54.46 13.51,-110.39 13.51,-167.3"
             style="fill:url(#linearGradient164);fill-opacity:1;fill-rule:nonzero;stroke:none"
             id="path166" /></g></g><g
         id="g168"><g
           id="g170"
           clip-path="url(#clipPath174)"><path
             d="M 1697.13,1271.63 C 1574.3,818.5 1160.16,485.262 668.137,485.262 415.129,485.262 182.781,573.32 0,720.539 V 1229.7 c 0,0 571.852,-289.739 1697.13,41.93"
             style="fill:url(#linearGradient182);fill-opacity:1;fill-rule:nonzero;stroke:none"
             id="path184" /></g></g><path
         d="m 2518.13,3473.98 c -1.5,1.49 -4.24,3.54 -8.21,6.12 -3.99,2.58 -8.82,5.1 -14.5,7.57 -5.7,2.46 -11.87,4.56 -18.53,6.28 -6.66,1.72 -13.42,2.58 -20.29,2.58 -12.25,0 -21.38,-2.26 -27.38,-6.77 -6.02,-4.51 -9.03,-10.84 -9.03,-19 0,-4.73 1.13,-8.65 3.39,-11.76 2.25,-3.12 5.52,-5.86 9.82,-8.21 4.3,-2.38 9.72,-4.52 16.27,-6.45 6.55,-1.93 14.12,-3.97 22.71,-6.12 11.17,-3.01 21.31,-6.23 30.45,-9.66 9.12,-3.44 16.85,-7.74 23.19,-12.89 6.33,-5.16 11.22,-11.33 14.66,-18.53 3.43,-7.19 5.15,-16.05 5.15,-26.57 0,-12.25 -2.31,-22.71 -6.93,-31.41 -4.62,-8.7 -10.84,-15.74 -18.68,-21.1 -7.84,-5.37 -16.87,-9.29 -27.06,-11.76 -10.21,-2.47 -20.89,-3.71 -32.06,-3.71 -17.17,0 -34.14,2.58 -50.89,7.74 -16.76,5.15 -31.79,12.45 -45.11,21.9 l 19.66,38.34 c 1.93,-1.93 5.42,-4.46 10.46,-7.57 5.05,-3.11 11.01,-6.24 17.89,-9.34 6.87,-3.12 14.49,-5.75 22.87,-7.89 8.37,-2.15 16.96,-3.23 25.77,-3.23 24.48,0 36.72,7.84 36.72,23.52 0,4.94 -1.39,9.12 -4.18,12.56 -2.79,3.43 -6.77,6.44 -11.92,9.02 -5.15,2.58 -11.39,4.94 -18.69,7.09 -7.3,2.14 -15.46,4.51 -24.48,7.09 -10.95,3 -20.45,6.28 -28.51,9.82 -8.05,3.55 -14.77,7.73 -20.13,12.56 -5.37,4.84 -9.4,10.43 -12.09,16.76 -2.68,6.33 -4.02,13.9 -4.02,22.71 0,11.6 2.15,21.9 6.44,30.92 4.3,9.03 10.25,16.54 17.88,22.55 7.62,6.02 16.48,10.58 26.58,13.7 10.09,3.11 20.93,4.67 32.54,4.67 16.1,0 30.92,-2.53 44.45,-7.58 13.53,-5.04 25.34,-11 35.43,-17.87 l -19.64,-36.08"
         style="fill:#ffffff;fill-opacity:1;fill-rule:nonzero;stroke:none"
         id="path186" /><path
         d="m 2608.97,3389.25 c 0,-7.52 1.13,-14.33 3.38,-20.46 2.26,-6.11 5.37,-11.43 9.34,-15.94 3.98,-4.51 8.65,-8 14.02,-10.47 5.37,-2.47 11.16,-3.7 17.4,-3.7 6.23,0 12.02,1.23 17.39,3.7 5.36,2.47 10.04,5.96 14.01,10.47 3.98,4.51 7.09,9.88 9.35,16.11 2.25,6.22 3.38,13.09 3.38,20.61 0,7.3 -1.13,14.07 -3.38,20.3 -2.26,6.23 -5.37,11.6 -9.35,16.11 -3.97,4.51 -8.65,8 -14.01,10.47 -5.37,2.46 -11.16,3.7 -17.39,3.7 -6.24,0 -12.03,-1.29 -17.4,-3.86 -5.37,-2.58 -10.04,-6.12 -14.02,-10.63 -3.97,-4.51 -7.08,-9.88 -9.34,-16.11 -2.25,-6.23 -3.38,-13 -3.38,-20.3 z m 44.14,-87.3 c -13.75,0 -26.1,2.37 -37.06,7.09 -10.95,4.73 -20.24,11.11 -27.85,19.17 -7.63,8.06 -13.48,17.34 -17.57,27.86 -4.08,10.53 -6.12,21.59 -6.12,33.18 0,11.81 2.04,22.98 6.12,33.51 4.09,10.52 9.94,19.81 17.57,27.86 7.61,8.06 16.9,14.44 27.85,19.17 10.96,4.73 23.31,7.09 37.06,7.09 13.74,0 26.03,-2.36 36.89,-7.09 10.83,-4.73 20.07,-11.11 27.7,-19.17 7.61,-8.05 13.47,-17.34 17.55,-27.86 4.08,-10.53 6.13,-21.7 6.13,-33.51 0,-11.59 -2.05,-22.65 -6.13,-33.18 -4.08,-10.52 -9.87,-19.8 -17.39,-27.86 -7.52,-8.06 -16.76,-14.44 -27.71,-19.17 -10.95,-4.72 -23.3,-7.09 -37.04,-7.09"
         style="fill:#ffffff;fill-opacity:1;fill-rule:nonzero;stroke:none"
         id="path188" /><path
         d="m 3032.59,3305.17 h -43.17 v 94.72 c 0,13.52 -2.31,23.4 -6.92,29.64 -4.62,6.22 -11.02,9.33 -19.17,9.33 -8.6,0 -16.65,-3.27 -24.16,-9.82 -7.52,-6.56 -12.89,-15.09 -16.11,-25.61 v -98.26 h -43.17 v 94.72 c 0,13.52 -2.31,23.4 -6.92,29.64 -4.63,6.22 -11.01,9.33 -19.17,9.33 -8.38,0 -16.38,-3.22 -24,-9.66 -7.63,-6.44 -13.05,-14.93 -16.27,-25.45 v -98.58 h -43.16 v 168.81 h 38.98 v -31.25 c 6.22,10.96 14.75,19.38 25.61,25.29 10.84,5.9 23.24,8.86 37.2,8.86 14.18,0 25.13,-3.44 32.85,-10.31 7.74,-6.88 12.68,-15.36 14.83,-25.45 6.86,11.6 15.57,20.46 26.09,26.58 10.52,6.11 22.55,9.18 36.08,9.18 10.31,0 18.79,-1.93 25.46,-5.8 6.65,-3.87 11.8,-8.92 15.45,-15.14 3.66,-6.24 6.18,-13.32 7.57,-21.27 1.39,-7.95 2.1,-15.99 2.1,-24.16 v -105.34"
         style="fill:#ffffff;fill-opacity:1;fill-rule:nonzero;stroke:none"
         id="path190" /><path
         d="m 3192.37,3403.75 c -1.07,12.67 -5.74,22.82 -14.02,30.45 -8.26,7.61 -18.3,11.43 -30.11,11.43 -5.8,0 -11.23,-1.02 -16.27,-3.06 -5.05,-2.05 -9.5,-4.89 -13.37,-8.54 -3.87,-3.65 -7.04,-8.05 -9.5,-13.21 -2.47,-5.15 -3.92,-10.84 -4.35,-17.07 z m -43.81,-101.8 c -13.53,0 -25.77,2.31 -36.72,6.93 -10.96,4.61 -20.3,10.9 -28.04,18.84 -7.72,7.95 -13.68,17.19 -17.87,27.71 -4.19,10.52 -6.29,21.59 -6.29,33.18 0,12.02 2.04,23.36 6.13,33.98 4.07,10.64 9.99,19.98 17.72,28.03 7.73,8.06 17.12,14.44 28.18,19.17 11.06,4.73 23.47,7.09 37.22,7.09 13.73,0 26.03,-2.36 36.88,-7.09 10.84,-4.73 20.07,-11.06 27.7,-19 7.62,-7.95 13.42,-17.19 17.39,-27.71 3.98,-10.53 5.97,-21.48 5.97,-32.86 0,-2.79 -0.06,-5.48 -0.16,-8.06 -0.12,-2.57 -0.38,-4.72 -0.81,-6.43 h -130.47 c 0.65,-6.66 2.26,-12.57 4.83,-17.73 2.58,-5.15 5.91,-9.56 9.99,-13.2 4.08,-3.65 8.7,-6.44 13.85,-8.38 5.16,-1.93 10.52,-2.9 16.11,-2.9 8.59,0 16.7,2.1 24.33,6.28 7.61,4.19 12.82,9.72 15.61,16.59 l 37.05,-10.3 c -6.23,-12.89 -16.15,-23.47 -29.79,-31.74 -13.65,-8.26 -29.91,-12.4 -48.81,-12.4"
         style="fill:#ffffff;fill-opacity:1;fill-rule:nonzero;stroke:none"
         id="path192" /><path
         d="m 3363.11,3313.87 c -5.81,-2.58 -12.89,-5.16 -21.26,-7.73 -8.38,-2.58 -17.19,-3.87 -26.42,-3.87 -6.01,0 -11.66,0.76 -16.91,2.26 -5.27,1.5 -9.88,3.91 -13.86,7.25 -3.98,3.32 -7.14,7.62 -9.5,12.88 -2.36,5.27 -3.54,11.65 -3.54,19.17 v 96.97 h -22.24 v 33.18 h 22.24 v 54.77 h 43.17 v -54.77 h 35.43 v -33.18 h -35.43 v -82.48 c 0,-6.01 1.55,-10.25 4.67,-12.72 3.1,-2.47 6.93,-3.7 11.43,-3.7 4.51,0 8.91,0.75 13.21,2.26 4.29,1.49 7.74,2.78 10.31,3.86 l 8.7,-34.15"
         style="fill:#ffffff;fill-opacity:1;fill-rule:nonzero;stroke:none"
         id="path194" /><path
         d="m 3542.54,3305.17 h -43.17 v 94.72 c 0,13.31 -2.47,23.13 -7.41,29.47 -4.94,6.33 -11.92,9.5 -20.94,9.5 -3.87,0 -7.95,-0.86 -12.24,-2.57 -4.3,-1.72 -8.37,-4.14 -12.24,-7.25 -3.86,-3.12 -7.41,-6.82 -10.63,-11.11 -3.22,-4.3 -5.59,-9.03 -7.09,-14.18 v -98.58 h -43.16 v 235.17 h 43.16 v -97.61 c 6.23,10.96 14.66,19.38 25.29,25.29 10.63,5.9 22.39,8.86 35.27,8.86 10.96,0 19.86,-1.88 26.75,-5.65 6.86,-3.75 12.23,-8.75 16.1,-14.96 3.86,-6.25 6.55,-13.32 8.06,-21.27 1.49,-7.95 2.25,-16.11 2.25,-24.49 v -105.34"
         style="fill:#ffffff;fill-opacity:1;fill-rule:nonzero;stroke:none"
         id="path196" /><path
         d="m 3580.23,3305.17 v 168.81 h 43.16 v -168.81 z m 0,192.33 v 42.84 h 43.16 v -42.84 h -43.16"
         style="fill:#ffffff;fill-opacity:1;fill-rule:nonzero;stroke:none"
         id="path198" /><path
         d="m 3819.26,3305.17 h -43.17 v 94.72 c 0,13.52 -2.37,23.4 -7.09,29.64 -4.73,6.22 -11.28,9.33 -19.65,9.33 -4.3,0 -8.69,-0.86 -13.21,-2.57 -4.5,-1.72 -8.75,-4.14 -12.72,-7.25 -3.98,-3.12 -7.58,-6.82 -10.79,-11.11 -3.22,-4.3 -5.59,-9.03 -7.09,-14.18 v -98.58 h -43.16 v 168.81 h 38.97 v -31.25 c 6.23,10.73 15.25,19.11 27.06,25.13 11.81,6.01 25.13,9.02 39.95,9.02 10.52,0 19.11,-1.93 25.78,-5.8 6.65,-3.87 11.8,-8.92 15.45,-15.14 3.66,-6.24 6.17,-13.32 7.57,-21.27 1.39,-7.95 2.1,-15.99 2.1,-24.16 v -105.34"
         style="fill:#ffffff;fill-opacity:1;fill-rule:nonzero;stroke:none"
         id="path200" /><path
         d="m 3937.48,3338.68 c 4.72,0 9.24,0.75 13.53,2.25 4.3,1.5 8.27,3.55 11.92,6.12 3.66,2.58 6.87,5.58 9.67,9.02 2.79,3.44 4.93,7.09 6.44,10.96 v 40.26 c -3.86,9.88 -9.94,17.83 -18.2,23.84 -8.27,6.01 -16.91,9.02 -25.93,9.02 -6.66,0 -12.68,-1.44 -18.04,-4.35 -5.37,-2.89 -9.99,-6.76 -13.86,-11.6 -3.86,-4.83 -6.82,-10.36 -8.85,-16.59 -2.05,-6.23 -3.07,-12.66 -3.07,-19.32 0,-6.88 1.18,-13.33 3.55,-19.33 2.36,-6.01 5.63,-11.28 9.83,-15.79 4.19,-4.5 9.07,-8.05 14.66,-10.63 5.57,-2.58 11.7,-3.86 18.35,-3.86 z m -14.49,-34.48 c -11.39,0 -21.7,2.26 -30.93,6.77 -9.23,4.51 -17.23,10.69 -24,18.53 -6.76,7.83 -11.97,16.91 -15.62,27.21 -3.66,10.32 -5.48,21.26 -5.48,32.86 0,12.25 1.93,23.63 5.8,34.16 3.87,10.51 9.23,19.75 16.11,27.7 6.87,7.94 15.14,14.17 24.81,18.68 9.66,4.52 20.29,6.77 31.88,6.77 13.11,0 24.59,-2.96 34.47,-8.86 9.88,-5.91 18.04,-13.81 24.49,-23.68 v 29.64 h 37.69 v -160.75 c 0,-12.45 -2.37,-23.62 -7.09,-33.51 -4.72,-9.87 -11.22,-18.25 -19.49,-25.13 -8.27,-6.86 -18.15,-12.13 -29.64,-15.78 -11.48,-3.65 -23.99,-5.47 -37.52,-5.47 -18.47,0 -33.99,3.05 -46.55,9.18 -12.57,6.12 -23.37,14.76 -32.38,25.93 l 23.51,22.87 c 6.45,-7.94 14.55,-14.18 24.33,-18.69 9.76,-4.5 20.13,-6.75 31.09,-6.75 6.65,0 13.04,0.91 19.17,2.73 6.11,1.82 11.53,4.67 16.26,8.53 4.72,3.87 8.43,8.81 11.11,14.83 2.69,6.01 4.03,13.09 4.03,21.26 v 21.26 c -5.59,-9.66 -13.42,-17.13 -23.52,-22.4 -10.09,-5.26 -20.93,-7.89 -32.53,-7.89"
         style="fill:#ffffff;fill-opacity:1;fill-rule:nonzero;stroke:none"
         id="path202" /><path
         d="m 4210.66,3533.26 h 40.91 l 25.77,-75.72 25.77,75.72 h 41.24 l -38.98,-104.06 28.99,-73.13 64.76,177.83 h 48.32 l -93.11,-228.73 h -37.36 l -39.63,96.01 -39.62,-96.01 h -37.37 l -92.46,228.73 h 47.68 l 65.07,-177.83 28.35,73.13 -38.33,104.06"
         style="fill:#ffffff;fill-opacity:1;fill-rule:nonzero;stroke:none"
         id="path204" /><path
         d="m 4568.24,3403.75 c -1.08,12.67 -5.74,22.82 -14.02,30.45 -8.26,7.61 -18.31,11.43 -30.11,11.43 -5.8,0 -11.22,-1.02 -16.27,-3.06 -5.05,-2.05 -9.51,-4.89 -13.37,-8.54 -3.87,-3.65 -7.03,-8.05 -9.49,-13.21 -2.48,-5.15 -3.93,-10.84 -4.36,-17.07 z m -43.81,-101.8 c -13.54,0 -25.77,2.31 -36.73,6.93 -10.95,4.61 -20.29,10.9 -28.02,18.84 -7.73,7.95 -13.69,17.19 -17.88,27.71 -4.19,10.52 -6.29,21.59 -6.29,33.18 0,12.02 2.04,23.36 6.13,33.98 4.08,10.64 9.99,19.98 17.72,28.03 7.72,8.06 17.12,14.44 28.18,19.17 11.06,4.73 23.46,7.09 37.21,7.09 13.74,0 26.04,-2.36 36.89,-7.09 10.84,-4.73 20.07,-11.06 27.71,-19 7.61,-7.95 13.42,-17.19 17.38,-27.71 3.98,-10.53 5.97,-21.48 5.97,-32.86 0,-2.79 -0.06,-5.48 -0.17,-8.06 -0.1,-2.57 -0.37,-4.72 -0.8,-6.43 h -130.47 c 0.65,-6.66 2.25,-12.57 4.83,-17.73 2.58,-5.15 5.91,-9.56 9.99,-13.2 4.08,-3.65 8.7,-6.44 13.86,-8.38 5.14,-1.93 10.51,-2.9 16.1,-2.9 8.58,0 16.7,2.1 24.33,6.28 7.61,4.19 12.82,9.72 15.61,16.59 l 37.05,-10.3 c -6.23,-12.89 -16.16,-23.47 -29.79,-31.74 -13.65,-8.26 -29.91,-12.4 -48.81,-12.4"
         style="fill:#ffffff;fill-opacity:1;fill-rule:nonzero;stroke:none"
         id="path206" /><path
         d="m 4796,3305.17 h -43.17 v 94.72 c 0,13.52 -2.37,23.4 -7.09,29.64 -4.73,6.22 -11.27,9.33 -19.65,9.33 -4.3,0 -8.69,-0.86 -13.2,-2.57 -4.52,-1.72 -8.76,-4.14 -12.73,-7.25 -3.97,-3.12 -7.58,-6.82 -10.79,-11.11 -3.22,-4.3 -5.6,-9.03 -7.09,-14.18 v -98.58 h -43.16 v 168.81 h 38.97 v -31.25 c 6.23,10.73 15.24,19.11 27.06,25.13 11.81,6.01 25.13,9.02 39.94,9.02 10.53,0 19.12,-1.93 25.78,-5.8 6.65,-3.87 11.8,-8.92 15.46,-15.14 3.66,-6.24 6.17,-13.32 7.57,-21.27 1.4,-7.95 2.1,-15.99 2.1,-24.16 v -105.34"
         style="fill:#ffffff;fill-opacity:1;fill-rule:nonzero;stroke:none"
         id="path208" /><path
         d="m 4933.24,3313.87 c -5.8,-2.58 -12.89,-5.16 -21.27,-7.73 -8.38,-2.58 -17.18,-3.87 -26.42,-3.87 -6,0 -11.65,0.76 -16.9,2.26 -5.28,1.5 -9.9,3.91 -13.86,7.25 -3.97,3.32 -7.14,7.62 -9.5,12.88 -2.37,5.27 -3.55,11.65 -3.55,19.17 v 96.97 h -22.23 v 33.18 h 22.23 v 54.77 h 43.18 v -54.77 h 35.43 v -33.18 h -35.43 v -82.48 c 0,-6.01 1.55,-10.25 4.66,-12.72 3.11,-2.47 6.94,-3.7 11.43,-3.7 4.52,0 8.92,0.75 13.21,2.26 4.3,1.49 7.74,2.78 10.32,3.86 l 8.7,-34.15"
         style="fill:#ffffff;fill-opacity:1;fill-rule:nonzero;stroke:none"
         id="path210" /><path
         d="m 5105.26,3533.26 h 40.91 l 25.77,-75.72 25.77,75.72 h 41.24 l -38.98,-104.06 28.99,-73.13 64.76,177.83 h 48.32 l -93.11,-228.73 h -37.36 l -39.63,96.01 -39.62,-96.01 h -37.37 l -92.45,228.73 h 47.67 l 65.07,-177.83 28.35,73.13 -38.33,104.06"
         style="fill:#ffffff;fill-opacity:1;fill-rule:nonzero;stroke:none"
         id="path212" /><path
         d="m 5449.96,3436.61 c -13.1,-0.22 -24.81,-2.74 -35.12,-7.57 -10.3,-4.84 -17.72,-12.08 -22.23,-21.75 v -102.12 h -43.16 v 168.81 h 39.63 v -36.09 c 3,5.81 6.54,11.01 10.62,15.63 4.08,4.62 8.48,8.64 13.22,12.08 4.71,3.44 9.5,6.06 14.33,7.89 4.83,1.83 9.5,2.74 14,2.74 2.37,0 4.14,0 5.33,0 1.17,0 2.3,-0.11 3.38,-0.32 v -39.3"
         style="fill:#ffffff;fill-opacity:1;fill-rule:nonzero;stroke:none"
         id="path214" /><path
         d="m 5499.57,3389.25 c 0,-7.52 1.13,-14.33 3.38,-20.46 2.26,-6.11 5.37,-11.43 9.34,-15.94 3.96,-4.51 8.64,-8 14.01,-10.47 5.37,-2.47 11.17,-3.7 17.41,-3.7 6.22,0 12.01,1.23 17.38,3.7 5.37,2.47 10.05,5.96 14.02,10.47 3.98,4.51 7.09,9.88 9.35,16.11 2.24,6.22 3.38,13.09 3.38,20.61 0,7.3 -1.14,14.07 -3.38,20.3 -2.26,6.23 -5.37,11.6 -9.35,16.11 -3.97,4.51 -8.65,8 -14.02,10.47 -5.37,2.46 -11.16,3.7 -17.38,3.7 -6.24,0 -12.04,-1.29 -17.41,-3.86 -5.37,-2.58 -10.05,-6.12 -14.01,-10.63 -3.97,-4.51 -7.08,-9.88 -9.34,-16.11 -2.25,-6.23 -3.38,-13 -3.38,-20.3 z m 44.14,-87.3 c -13.75,0 -26.1,2.37 -37.05,7.09 -10.96,4.73 -20.25,11.11 -27.87,19.17 -7.62,8.06 -13.48,17.34 -17.55,27.86 -4.1,10.53 -6.13,21.59 -6.13,33.18 0,11.81 2.03,22.98 6.13,33.51 4.07,10.52 9.93,19.81 17.55,27.86 7.62,8.06 16.91,14.44 27.87,19.17 10.95,4.73 23.3,7.09 37.05,7.09 13.74,0 26.03,-2.36 36.88,-7.09 10.83,-4.73 20.08,-11.11 27.71,-19.17 7.61,-8.05 13.46,-17.34 17.54,-27.86 4.09,-10.53 6.13,-21.7 6.13,-33.51 0,-11.59 -2.04,-22.65 -6.13,-33.18 -4.08,-10.52 -9.87,-19.8 -17.39,-27.86 -7.52,-8.06 -16.75,-14.44 -27.7,-19.17 -10.95,-4.72 -23.3,-7.09 -37.04,-7.09"
         style="fill:#ffffff;fill-opacity:1;fill-rule:nonzero;stroke:none"
         id="path216" /><path
         d="m 5817.85,3305.17 h -43.18 v 94.72 c 0,13.52 -2.37,23.4 -7.09,29.64 -4.72,6.22 -11.28,9.33 -19.65,9.33 -4.29,0 -8.69,-0.86 -13.21,-2.57 -4.5,-1.72 -8.75,-4.14 -12.71,-7.25 -3.98,-3.12 -7.58,-6.82 -10.79,-11.11 -3.23,-4.3 -5.6,-9.03 -7.09,-14.18 v -98.58 h -43.17 v 168.81 h 38.98 v -31.25 c 6.23,10.73 15.24,19.11 27.06,25.13 11.8,6.01 25.12,9.02 39.95,9.02 10.52,0 19.1,-1.93 25.77,-5.8 6.65,-3.87 11.81,-8.92 15.46,-15.14 3.65,-6.24 6.16,-13.32 7.57,-21.27 1.38,-7.95 2.1,-15.99 2.1,-24.16 v -105.34"
         style="fill:#ffffff;fill-opacity:1;fill-rule:nonzero;stroke:none"
         id="path218" /><path
         d="m 5936.07,3338.68 c 4.72,0 9.23,0.75 13.52,2.25 4.3,1.5 8.28,3.55 11.93,6.12 3.65,2.58 6.86,5.58 9.66,9.02 2.79,3.44 4.94,7.09 6.44,10.96 v 40.26 c -3.87,9.88 -9.93,17.83 -18.19,23.84 -8.27,6.01 -16.93,9.02 -25.94,9.02 -6.66,0 -12.67,-1.44 -18.04,-4.35 -5.37,-2.89 -9.99,-6.76 -13.85,-11.6 -3.87,-4.83 -6.82,-10.36 -8.86,-16.59 -2.04,-6.23 -3.07,-12.66 -3.07,-19.32 0,-6.88 1.18,-13.33 3.55,-19.33 2.36,-6.01 5.64,-11.28 9.83,-15.79 4.19,-4.5 9.07,-8.05 14.66,-10.63 5.58,-2.58 11.7,-3.86 18.36,-3.86 z m -14.49,-34.48 c -11.39,0 -21.7,2.26 -30.94,6.77 -9.23,4.51 -17.23,10.69 -23.99,18.53 -6.77,7.83 -11.98,16.91 -15.63,27.21 -3.65,10.32 -5.48,21.26 -5.48,32.86 0,12.25 1.94,23.63 5.8,34.16 3.87,10.51 9.23,19.75 16.12,27.7 6.86,7.94 15.13,14.17 24.8,18.68 9.66,4.52 20.29,6.77 31.89,6.77 13.1,0 24.59,-2.96 34.47,-8.86 9.87,-5.91 18.04,-13.81 24.48,-23.68 v 29.64 h 37.7 v -160.75 c 0,-12.45 -2.38,-23.62 -7.09,-33.51 -4.73,-9.87 -11.22,-18.25 -19.5,-25.13 -8.27,-6.86 -18.14,-12.13 -29.63,-15.78 -11.49,-3.65 -24,-5.47 -37.53,-5.47 -18.47,0 -33.99,3.05 -46.55,9.18 -12.57,6.12 -23.37,14.76 -32.38,25.93 l 23.52,22.87 c 6.44,-7.94 14.55,-14.18 24.32,-18.69 9.77,-4.5 20.13,-6.75 31.09,-6.75 6.66,0 13.04,0.91 19.17,2.73 6.12,1.82 11.54,4.67 16.27,8.53 4.71,3.87 8.42,8.81 11.11,14.83 2.68,6.01 4.02,13.09 4.02,21.26 v 21.26 c -5.58,-9.66 -13.42,-17.13 -23.51,-22.4 -10.1,-5.26 -20.94,-7.89 -32.53,-7.89"
         style="fill:#ffffff;fill-opacity:1;fill-rule:nonzero;stroke:none"
         id="path220" /><path
         d="m 766.637,988.332 c 0,0 29.332,-30.801 59.109,-37.25 29.777,-6.461 50.606,-14.691 50.832,-32.363 0.223,-17.668 -85.695,-29.321 -119.777,-11.5 -50.856,26.59 -56.024,18.582 -61.664,31.871 -5.641,13.289 6.773,48.832 6.406,53.058 -0.453,5.231 65.094,-3.816 65.094,-3.816"
         style="fill:#202338;fill-opacity:1;fill-rule:nonzero;stroke:none"
         id="path328" /><path
         d="m 763.336,1003.07 c 0,0 3.875,-14.429 3.301,-14.738 -0.578,-0.301 -67.106,-7.762 -65.094,3.816 1.633,9.402 3.961,19.602 3.961,19.602 l 57.832,-8.68"
         style="fill:#2f6b8c;fill-opacity:1;fill-rule:nonzero;stroke:none"
         id="path330" /><path
         d="m 435.293,980.301 c 0,0 21.578,-30 50.437,-36.93 28.465,-6.812 46.903,-19.801 48.297,-36.98 1.395,-17.18 -67.093,-39.68 -115.218,-9.5 -31.618,19.828 -43.414,18.699 -49.782,31.3 -6.371,12.598 3.34,47.899 2.703,51.989 -0.792,5.062 63.563,0.121 63.563,0.121"
         style="fill:#202338;fill-opacity:1;fill-rule:nonzero;stroke:none"
         id="path332" /><path
         d="m 434.414,995.129 c 0,0 1.422,-14.5 0.879,-14.828 -0.535,-0.332 -63.945,-11.551 -63.563,-0.121 0.297,9.082 4.016,20.38 4.016,20.38 l 58.668,-5.431"
         style="fill:#2f6b8c;fill-opacity:1;fill-rule:nonzero;stroke:none"
         id="path334" /><path
         d="m 696.234,1869.66 c 0,0 30.813,-223.79 43.395,-299.44 14.711,-88.46 19.695,-161.54 23.801,-207.33 5.16,-57.58 2.297,-352.27 5.906,-369.12 3.613,-16.829 -72.852,-8.079 -72.852,-8.079 0,0 -56.074,384.189 -71.445,445.519 -14.312,57.09 -53.676,292.51 -66.738,276.92 -13.059,-15.6 -55.348,-283.77 -65.016,-328.81 -9.672,-45.03 -48.722,-399.57 -48.722,-399.57 0,0 -64.997,-14.109 -82.727,0 0,0 3.961,316.14 10.121,400.58 2.356,32.17 -20.352,385.22 34.063,527.59 28.753,75.25 290.214,-38.26 290.214,-38.26"
         style="fill:#323657;fill-opacity:1;fill-rule:nonzero;stroke:none"
         id="path336" /><path
         d="m 698.906,1858.98 3.477,-33.6 c 0,0 -93.867,-38.03 -322.367,-38.05 v 38.45 l 318.89,33.2"
         style="fill:#67aaf5;fill-opacity:1;fill-rule:nonzero;stroke:none"
         id="path338" /><path
         d="m 831.879,2062.53 c 0,0 33.066,-4.28 40.254,-2.03 7.183,2.25 19.328,-1.18 26.164,-0.4 6.84,0.78 24.668,9.5 31.875,7.74 2.941,-0.73 19.344,-12.2 25.48,-13.03 6.141,-0.82 18.762,-1 17.961,-6.22 -0.8,-5.23 -12.109,-8.14 -12.109,-8.14 0,0 4.437,-2.1 5.172,-6.92 1.422,-9.39 -3.594,-11.72 -3.594,-11.72 0,0 4.617,-4.72 4.219,-8.75 -0.879,-8.92 -5.313,-10.78 -5.313,-10.78 0,0 1.785,-5.18 -0.156,-10.94 -2.484,-7.38 -10.625,-8.12 -10.625,-8.12 0,0 0.008,-7.99 -5.469,-9.38 -5.48,-1.38 -9.25,-2.65 -13.789,-2.58 -4.543,0.09 -43.683,13.24 -67.066,33.31 -23.391,20.08 -50.336,31.71 -50.336,31.71 l 17.332,26.25"
         style="fill:#eea886;fill-opacity:1;fill-rule:nonzero;stroke:none"
         id="path340" /><path
         d="m 859.496,2065.47 -10.996,-53.2 c 0,0 -73.5,7.5 -120,22.8 -9.5,3.1 -17.801,6.5 -24.199,10.3 -0.102,0 -0.102,0.1 -0.102,0.1 -2.5,1.4 -4.597,2.9 -6.402,4.4 -13.598,11.7 -23.301,43.5 -30.098,78.6 -2.301,11.6 -4.199,23.5 -5.801,35.2 -3.3,23.3 -5.503,45.6 -6.8,62.1 -1.399,16.5 -1.899,27.1 -1.899,27.1 0,0 -36.804,122.6 38.602,131 0,0 13.801,-3.3 32.094,-28.4 13.804,-18.7 18.503,-91.5 18.003,-104.9 -0.503,-13.3 18.598,-148.4 21.098,-152.5 2.402,-4.1 36.402,-12.4 62.203,-21.6 28.098,-10 34.297,-11 34.297,-11"
         style="fill:#67aaf5;fill-opacity:1;fill-rule:nonzero;stroke:none"
         id="path342" /><path
         d="m 605.844,2406.38 c 0,0 81.523,-16.85 91.199,-25.43 10.5,-9.12 29.02,-98.41 30.125,-123.28 1.109,-24.86 -9.828,-128.77 -20.328,-167.46 -10.5,-38.69 13.824,-203.38 -5.652,-230.53 0,0 -168.028,-53.9 -329.418,-32.9 0,0 34.648,155.43 28.187,208.45 -8.277,67.92 -28.187,224.4 -28.187,224.4 0,0 21.558,105.36 35.929,117.53 14.371,12.16 114.27,31.94 114.27,31.94 l 83.875,-2.72"
         style="fill:#67aaf5;fill-opacity:1;fill-rule:nonzero;stroke:none"
         id="path344" /><path
         d="m 642.738,2398.11 c 0,0 4.899,22.29 -64.918,27.47 -69.808,5.17 -117.035,-10.52 -118.347,-30.55 -1.321,-20.04 176.851,-70.04 176.851,-70.04 l 6.414,73.12"
         style="fill:#67aaf5;fill-opacity:1;fill-rule:nonzero;stroke:none"
         id="path346" /><path
         d="m 572.141,2658.46 c 0,0 98.062,36.29 91.937,-94.03 -6.133,-130.32 -29.113,-143.57 -93.625,-125.36 -64.512,18.19 -69.918,100.45 -78.312,140.01 -8.407,39.57 47.933,73.69 80,79.38"
         style="fill:#eea886;fill-opacity:1;fill-rule:nonzero;stroke:none"
         id="path348" /><path
         d="m 621.988,2385.75 c 0,0 -23.504,-10.36 -100.019,23.35 0,0 2.164,52.46 -12.852,101.46 -15.012,48.99 102.692,-65.33 102.692,-65.33 -1.239,-0.88 -1.477,-5.77 -0.77,-12.6 0.598,-5.79 1.867,-12.97 3.774,-20.25 4.304,-16.38 3.296,-13.48 7.175,-26.63"
         style="fill:#eea886;fill-opacity:1;fill-rule:nonzero;stroke:none"
         id="path350" /><path
         d="m 505.766,2514.45 c 0,0 -0.278,34.81 14.199,38.02 14.476,3.2 21.933,-16.93 21.933,-16.93 l 11.657,0.63 c 0,0 -10.414,35.28 3.383,43.37 13.804,8.08 96.367,0.98 106.73,12.86 10.359,11.87 -4.664,82.42 -27.188,89.33 -22.531,6.94 -84.062,20.98 -123.14,-13.83 0,0 -33.559,-14.49 -34.926,-42.17 -1.363,-27.68 15.574,-92.41 27.352,-111.28"
         style="fill:#163342;fill-opacity:1;fill-rule:nonzero;stroke:none"
         id="path352" /><path
         d="m 614.813,2412.38 c -76.008,12.77 -87.368,56 -87.54,56.68 29.547,-38.11 83.766,-36.43 83.766,-36.43 0.598,-5.79 1.867,-12.97 3.774,-20.25"
         style="fill:#a77860;fill-opacity:1;fill-rule:nonzero;stroke:none"
         id="path354" /><path
         d="m 536.352,2567.24 c -4.332,11.48 -28.789,10.04 -26.286,-8.16 2.508,-18.21 22.723,-46.25 30.836,-40.99 8.121,5.25 1.426,33.32 -4.55,49.15"
         style="fill:#eea886;fill-opacity:1;fill-rule:nonzero;stroke:none"
         id="path356" /><path
         d="m 1907.06,2230.81 c 0,0 28.16,13.77 32.53,15.75 4.37,1.97 17.54,-0.28 32.46,-4.16 14.91,-3.89 33.31,-15.82 34.17,-18.34 0.86,-2.51 2.9,-4.65 1.03,-11.21 -1.87,-6.56 -8.7,-10.1 -8.7,-10.1 0,0 1.35,-9.77 -5.47,-14.85 0,0 1.5,-8.62 -7.19,-13.12 0,0 2.05,-8.96 -4.53,-11.69 0,0 -13.22,2.23 -18.34,1.63 -5.13,-0.58 -38.85,9.39 -63.95,19.63 0,0 -13.88,14.26 7.99,46.46"
         style="fill:#eea886;fill-opacity:1;fill-rule:nonzero;stroke:none"
         id="path358" /><path
         d="m 1948.6,2214.8 c 0,0 -10.31,-11.91 -14.9,-13.78 -4.59,-1.88 14.14,-32.04 14.14,-32.04 0,0 14.89,32.89 0.76,45.82"
         style="fill:#cf8c6c;fill-opacity:1;fill-rule:nonzero;stroke:none"
         id="path360" /><path
         d="m 1721.33,1100.39 c 0,0 21.66,-38.75 34.52,-46.59 16.03,-9.78 47.13,-41.16 58,-42.6 10.87,-1.46 49.92,-8.38 42.38,-30.43 -6.18,-18.071 -99.34,-15.481 -109.84,-6.418 -10.51,9.046 -41.93,41.548 -54.6,40.828 -12.68,-0.72 -7.97,-46.879 -7.97,-46.879 h -13.77 c 0,0 -4.81,44.909 -5.39,52.629 -1.72,22.85 14.58,39.66 15.31,52.71 0.72,13.03 1.47,22.76 1.47,22.76 l 39.89,3.99"
         style="fill:#16202e;fill-opacity:1;fill-rule:nonzero;stroke:none"
         id="path362" /><path
         d="m 1810.74,1012.25 c 0,0 -30.71,-10.61 -54.34,2.98 -23.64,13.58 -68.99,34.21 -85.03,34.35 0,0 8.75,26.75 8.93,29.74 0.18,3 1.14,17.08 1.14,17.08 l 39.65,6.36 c 0,0 25.72,-37.77 37.06,-46.65 11.34,-8.89 40.37,-31.08 52.59,-43.86"
         style="fill:#eea886;fill-opacity:1;fill-rule:nonzero;stroke:none"
         id="path364" /><path
         d="m 1346.95,1063.94 c 0,0 3.83,-26.81 8.01,-34.11 4.18,-7.32 15.66,-44.568 20.88,-51.529 5.23,-6.969 16.71,-59.18 0,-65.449 -16.7,-6.27 -56.05,-16.711 -69.27,4.179 -13.24,20.879 -14.98,41.77 -12.89,57.789 2.09,16.012 17.98,89.51 17.76,96.78 -0.22,7.27 35.51,-7.66 35.51,-7.66"
         style="fill:#eea886;fill-opacity:1;fill-rule:nonzero;stroke:none"
         id="path366" /><path
         d="m 1369.18,992.77 c 0,0 1.79,-40.579 -28.84,-40.579 -30.64,0 -44.22,36.93 -44.22,36.93 0,0 -10.44,-18.129 0,-56.769 10.45,-38.641 53.96,-30.641 63.71,-29.25 9.75,1.398 55.95,13.609 9.35,89.668"
         style="fill:#16202e;fill-opacity:1;fill-rule:nonzero;stroke:none"
         id="path368" /><path
         d="m 1397.5,1988.26 c 0,0 -39.61,-50.47 -53.58,-83.86 -13.98,-33.39 -37.28,-106.57 -34.17,-163.26 3.11,-56.68 21.74,-163.07 16.3,-187.14 -5.43,-24.07 -10.86,-73.77 -16.68,-90.85 -5.83,-17.08 -29.13,-66.78 -31.45,-118.03 -2.34,-51.25 16.58,-276.04 15.02,-297.01 -1.55,-20.97 67.84,-8.15 67.84,-8.15 0,0 1.77,202.67 9.54,237.61 7.76,34.94 17.08,153.74 24.06,162.29 7,8.53 26.61,98.63 27.87,113.32 1.22,14.24 84.29,260.5 88.95,302.43 4.65,41.93 108.68,132.65 108.68,132.65 0,0 -102.03,39.02 -222.38,0"
         style="fill:#0c3454;fill-opacity:1;fill-rule:nonzero;stroke:none"
         id="path370" /><path
         d="m 1655.49,1089.27 c -14.74,2.33 -54.26,229.45 -49.61,269.84 4.66,40.38 9.32,126.46 -3.89,161.45 -8.66,22.97 -62.78,139.83 -99.2,221.87 -5.13,11.58 -9.91,22.45 -14.18,32.28 -11.56,26.69 -19.2,45.62 -19.4,49.51 -0.78,15.53 -51.41,283.04 148.62,164.04 0,0 2.03,-21.16 4.35,-28.92 2.34,-7.76 55.92,-205.77 61.34,-281.87 5.44,-76.11 19.42,-140.65 21.74,-156.91 2.34,-16.25 -2.32,-70.6 -6.98,-84.59 -4.66,-13.97 30.29,-329.55 32.63,-337.31 2.32,-7.77 -60.67,-11.7 -75.42,-9.39"
         style="fill:#0c3454;fill-opacity:1;fill-rule:nonzero;stroke:none"
         id="path372" /><path
         d="m 1550.37,2389.47 c 0,0 40.68,13.33 63.82,-9.29 23.14,-22.62 41.09,-52.72 47.44,-65.07 6.36,-12.33 69.1,-97.57 73.42,-100 4.33,-2.43 56.64,8.48 88.46,12.9 44.69,6.22 85.21,9.04 85.21,9.04 l 6.01,-59.56 c 0,0 -200.2,-38.52 -217.61,-24.37 -38.43,31.23 -132.77,146.76 -132.77,146.76 0,0 -78.16,43.48 -13.98,89.59"
         style="fill:#ffa15b;fill-opacity:1;fill-rule:nonzero;stroke:none"
         id="path374" /><path
         d="m 1539.37,2410.92 c 0,0 37.85,-17.86 50.99,-20.49 13.14,-2.62 64.15,-68.84 73.09,-93.01 8.94,-24.18 0.01,-60.45 -18.38,-103.04 -18.39,-42.58 -1.03,-56.77 -9.44,-99.35 -8.39,-42.57 -15.73,-132.73 -14.15,-156.38 1.58,-23.66 -212.6,-28.17 -261.5,14.92 0,0 49.12,73.6 55.43,84.12 6.3,10.51 1.03,67.8 -4.76,82.52 -5.78,14.72 -66.31,133.11 -66.31,133.11 0,0 -9.27,100.78 19.17,122.87 24.7,19.19 91.81,28.15 103.9,32.36 12.08,4.21 47.25,6.04 71.96,2.37"
         style="fill:#eddad3;fill-opacity:1;fill-rule:nonzero;stroke:none"
         id="path376" /><path
         d="m 1551.48,2326.56 22.99,26.93 -19.99,70.9 c 0,0 -6.7,-39.48 -3,-97.83"
         style="fill:#d6c5be;fill-opacity:1;fill-rule:nonzero;stroke:none"
         id="path378" /><path
         d="m 1557.42,2454.6 c 0,0 -7.53,-69.43 -5.95,-92.04 0,0 -39.32,-39.41 -84.06,45.99 0,0 18.81,35.2 4.63,83.17 -14.17,47.96 85.38,-37.12 85.38,-37.12"
         style="fill:#eea886;fill-opacity:1;fill-rule:nonzero;stroke:none"
         id="path380" /><path
         d="m 1551.47,2362.56 0.01,-36 -45.27,33.81 z"
         style="fill:#eea886;fill-opacity:1;fill-rule:nonzero;stroke:none"
         id="path382" /><path
         d="m 1551.48,2326.56 -18.8,23.26 -63.31,63.07 -20.47,-19.73 102.58,-66.6"
         style="fill:#d6c5be;fill-opacity:1;fill-rule:nonzero;stroke:none"
         id="path384" /><path
         d="m 1478.77,1904.55 c -17.81,-85.32 -146.75,9.59 -146.75,9.59 0,0 83.61,140.47 50.34,252.74 -0.27,0.9 -0.53,1.78 -0.79,2.67 -2.13,7.09 -4.25,13.84 -6.37,20.26 -30.54,92.84 -52.62,117.31 -52.62,117.31 0,0 33.4,82.45 69.35,87.99 35.95,5.56 68.65,11.73 68.65,11.73 0,0 53.14,-80.59 55.68,-116.07 2.55,-35.47 -19.67,-300.89 -37.49,-386.22"
         style="fill:#ffa15b;fill-opacity:1;fill-rule:nonzero;stroke:none"
         id="path386" /><path
         d="m 1668.73,2281.07 c 0,0 3.98,-48.93 -29.6,-113.17 0,0 0.71,-86.01 1.77,-115.97 1.06,-29.96 7.85,-137.84 7.85,-137.84 l -36.57,-27.03 c -7.44,-4.35 -16.65,1.68 -15.61,10.24 10.43,86.22 44.36,413.29 -29.12,501.18 l 29.48,-8.68 c 0,0 71.8,-74.51 71.8,-108.73"
         style="fill:#ffa15b;fill-opacity:1;fill-rule:nonzero;stroke:none"
         id="path388" /><path
         d="m 1574.47,2353.49 28.98,-8 -48.97,78.9 z"
         style="fill:#fae6de;fill-opacity:1;fill-rule:nonzero;stroke:none"
         id="path390" /><path
         d="m 1532.68,2349.82 -26.46,-34.71 -54.13,90.17 17.28,7.61 63.31,-63.07"
         style="fill:#fae6de;fill-opacity:1;fill-rule:nonzero;stroke:none"
         id="path392" /><path
         d="m 1530.01,2678.7 c 27.7,2.66 89.93,-8.37 102.92,-81.49 0,0 -1.28,-19.94 -5.35,-35.75 -4.07,-15.81 12.07,-61.09 8.54,-63.54 -3.54,-2.43 -18.46,-6.04 -18.46,-6.04 0,0 -13.8,-50.97 -31.44,-51.38 -17.65,-0.4 -85,10.2 -119.39,71.15 -34.39,60.95 -48.65,156.29 63.18,167.05"
         style="fill:#eea886;fill-opacity:1;fill-rule:nonzero;stroke:none"
         id="path394" /><path
         d="m 1632.93,2597.21 c 0,0 -43.6,-32.86 -88.03,-41.2 -44.43,-8.32 -68.45,-85.61 -68.45,-85.61 0,0 -74.51,111.98 -22.91,183.69 51.62,71.71 185.04,29.32 179.39,-56.88"
         style="fill:#0c3454;fill-opacity:1;fill-rule:nonzero;stroke:none"
         id="path396" /><path
         d="m 1526.21,2557.18 c -0.66,8.65 -10.91,21.18 -24.53,8.68 -13.62,-12.51 7.41,-52.76 18.84,-48.17 11.44,4.58 6.36,30.57 5.69,39.49"
         style="fill:#eea886;fill-opacity:1;fill-rule:nonzero;stroke:none"
         id="path398" /><path
         d="m 1557.52,2444.57 c -1.01,-5.4 -2.03,-11.71 -2.88,-18.38 -37.27,21.25 -56.82,48.32 -56.82,48.32 21.57,-17.72 59.7,-29.94 59.7,-29.94"
         style="fill:#a77860;fill-opacity:1;fill-rule:nonzero;stroke:none"
         id="path400" /><path
         d="m 1407.68,2278.05 c -1.93,-50.44 -26.11,-108.5 -26.11,-108.5 -2.13,7.09 -4.25,13.84 -6.37,20.26 13.62,38.09 32.48,88.24 32.48,88.24"
         style="fill:#912b2b;fill-opacity:1;fill-rule:nonzero;stroke:none"
         id="path402" /><path
         d="m 1484.62,2572.71 c 13.62,-31.01 5.38,-64.6 -18.39,-75.05 -23.78,-10.45 -54.1,6.21 -67.72,37.21 -13.62,30.99 -5.38,64.6 18.39,75.05 23.78,10.44 54.1,-6.21 67.72,-37.21"
         style="fill:#0c3454;fill-opacity:1;fill-rule:nonzero;stroke:none"
         id="path404" /><path
         d="m 1632.96,2001.98 -21.98,-1.11 -2.3,-41.95 c 0,0 17.72,16.75 24.28,43.06"
         style="fill:#eea886;fill-opacity:1;fill-rule:nonzero;stroke:none"
         id="path406" /><path
         d="m 728.5,2035.07 c -9.5,3.1 -17.801,6.5 -24.199,10.3 -0.102,0 -0.102,0.1 -0.102,0.1 0,0 -0.801,48.29 14.696,113.6 l 9.605,-124"
         style="fill:#4775a8;fill-opacity:1;fill-rule:nonzero;stroke:none"
         id="path408" /><path
         d="m 466.508,2215.4 c 0,0 2.855,-153.11 12.855,-166.28 10,-13.19 68.297,-112.34 68.297,-112.34 0,0 -99.961,69.15 -99.961,123.32 0,54.17 18.809,155.3 18.809,155.3"
         style="fill:#4775a8;fill-opacity:1;fill-rule:nonzero;stroke:none"
         id="path410" /><path
         d="m 2841.6,2514.83 c 0.03,-0.08 0.03,-0.08 0.03,-0.08 7.42,-17.84 16.65,-34.9 26.99,-49.48 35.76,-50.41 124.22,-55.62 131.56,78.03 1.39,25.3 -0.84,45.98 -5.17,62.87 -15.43,60.15 -57.56,71.95 -57.56,71.95 -31.38,3.15 -86.78,-2.15 -106.97,-42.27 -14.34,-28.51 -7.1,-77.16 11.12,-121.02"
         style="fill:#eea987;fill-opacity:1;fill-rule:nonzero;stroke:none"
         id="path412" /><path
         d="m 2841.6,2514.83 c 0.03,-0.08 0.03,-0.08 0.03,-0.08 0,0 4.48,-1.42 22.31,30.85 3.58,6.47 5.88,1.63 7.44,4.49 l 26.5,8.98 c 0,0 -23.06,36.28 11.17,46.7 34.89,10.63 85.96,0.4 85.96,0.4 32.03,115.71 -63.2,78.65 -63.2,78.65 -33.38,-4.72 -81.14,-8.85 -101.33,-48.97 -14.34,-28.51 -7.1,-77.16 11.12,-121.02"
         style="fill:#665249;fill-opacity:1;fill-rule:nonzero;stroke:none"
         id="path414" /><path
         d="m 2877.59,2569.87 c -1.54,9.02 -18.84,17.51 -27.21,-1.36 -8.37,-18.87 15.81,-40.37 22.61,-36.46 6.8,3.93 7.13,22.87 4.6,37.82"
         style="fill:#eea987;fill-opacity:1;fill-rule:nonzero;stroke:none"
         id="path416" /><path
         d="m 2479.19,2106.73 c 0,0 -29.79,12.38 -34.4,14.12 -4.61,1.75 -18,-1.38 -33.07,-6.31 -15.07,-4.94 -33.22,-18.34 -33.95,-20.98 -0.72,-2.64 -2.69,-4.96 -0.35,-11.58 2.34,-6.61 9.41,-10.17 9.41,-10.17 0,0 -0.76,-9.89 6.56,-14.69 0,0 -1.07,-8.88 8.13,-12.97 0,0 -1.31,-9.25 5.62,-11.65 0,0 13.43,3.12 18.73,2.84 5.31,-0.29 39.32,12.07 64.45,24.18 0,0 13.35,15.5 -11.13,47.21"
         style="fill:#eea886;fill-opacity:1;fill-rule:nonzero;stroke:none"
         id="path418" /><path
         d="m 2437.53,2087.67 c 0,0 11.34,-11.58 16.17,-13.21 4.83,-1.64 -12.5,-33.79 -12.5,-33.79 0,0 -17.37,32.83 -3.67,47"
         style="fill:#cf8c6c;fill-opacity:1;fill-rule:nonzero;stroke:none"
         id="path420" /><path
         d="m 2488.59,2041.93 c 0,0 158.25,15.37 192.51,29.16 15.84,6.38 25.92,27.21 42.66,56.78 5.53,9.74 10.86,19.89 15.88,29.9 0.02,0.03 0.01,0.05 0.01,0.05 20.03,39.98 34.81,77.67 34.81,77.67 0,0 62.07,97.93 -3.25,128.33 0,0 -25.57,-1.04 -38.39,-13.65 -11.84,-11.65 -36.76,-81.34 -42.5,-92.63 -6.33,-12.43 -36.45,-115.5 -39.9,-118.42 -3.46,-2.92 -43.37,-10.72 -69.33,-17.14 -36.43,-9.03 -106.13,-10.79 -106.13,-10.79 l 13.63,-69.26"
         style="fill:#5e5f70;fill-opacity:1;fill-rule:nonzero;stroke:none"
         id="path422" /><path
         d="m 3189.19,977.281 c 0,0 10.35,-23.172 18.79,-32.242 8.44,-9.07 40.26,-24.828 41.16,-52.398 0.98,-29.899 -52.31,-23.02 -73.1,-22.469 -20.78,0.539 -22.78,16.469 -31.97,33.168 -9.19,16.699 -17.92,13.601 -19.92,27.211 -2.01,13.609 5.51,44.41 5.51,44.41 l 59.53,2.32"
         style="fill:#202026;fill-opacity:1;fill-rule:nonzero;stroke:none"
         id="path424" /><path
         d="m 2773.84,960.852 c 0,0 -28.11,-31.133 -57.29,-38.27 -29.18,-7.152 -49.5,-15.801 -49.26,-33.23 0.25,-17.422 85.24,-26.653 118.36,-8.192 49.44,27.551 54.74,19.77 59.95,33.02 5.21,13.261 -7.95,47.961 -7.7,52.14 0.3,5.172 -64.06,-5.468 -64.06,-5.468"
         style="fill:#202026;fill-opacity:1;fill-rule:nonzero;stroke:none"
         id="path426" /><path
         d="m 2753.94,1837.62 c 0,0 -24.5,-221.4 -34.92,-296.3 -12.17,-87.57 -15.17,-159.73 -18.01,-204.98 -3.58,-56.89 57.76,-360.82 54.64,-377.508 -3.12,-16.691 95.64,9.457 95.64,9.457 0,0 -40.89,362.491 -27.35,423.341 12.6,56.66 56.91,305.42 70.2,290.39 13.28,-15.03 101.33,-284.37 112.05,-328.51 10.71,-44.13 111.89,-389.229 111.89,-389.229 0,0 69.1,-12.941 86.21,1.438 0,0 -68.46,317.691 -76.75,400.761 -3.16,31.66 -31.18,377.57 -88.55,516.47 -30.32,73.41 -285.05,-45.33 -285.05,-45.33"
         style="fill:#3d3d47;fill-opacity:1;fill-rule:nonzero;stroke:none"
         id="path428" /><path
         d="m 2974.82,1901.24 c 0,0 -32.32,9.84 -48.18,12.31 -15.89,2.48 160.36,124.79 158.66,165.1 -1.35,32.67 -21.54,118.52 -21.54,118.52 0,0 0,-0.05 -0.02,-0.14 -0.02,-0.02 -0.02,-0.07 -0.02,-0.1 0,-0.04 -0.02,-0.1 -0.02,-0.14 -1.6,-6.52 -23.36,-96.74 -23.05,-139.8 0.3,-44.7 11.56,-215.39 11.56,-215.39 l -66.38,-8.26 -191.13,-9.77 -40.02,3.64 c 0,0 2.82,73.19 3.66,107.95 0.52,22.09 3.75,61.7 1.63,100.14 0,0 -0.39,40.57 -4.87,57.92 -2.49,77.07 -9.19,153.28 -9.19,153.28 -3.52,34.88 -6.18,67.5 -8.02,97.97 8.31,4.67 18.3,10.16 26.32,14.24 24.78,12.62 59.33,29.64 81.49,40.54 12.99,6.39 25.74,11.14 25.74,11.14 0,0 89.47,10.98 96.76,10.73 2.31,-0.09 13.62,-3.69 28.47,-8.91 32.13,-11.22 94.11,-34.17 104.07,-40.93 14.59,-9.86 51.35,-252.7 53.18,-269.71 3.28,-30.68 -179.1,-200.33 -179.1,-200.33"
         style="fill:#e6435c;fill-opacity:1;fill-rule:nonzero;stroke:none"
         id="path430" /><path
         d="m 2759.62,1857.89 c 0,0 131.57,-7.68 246.24,6.56 l 1.01,-37.73 c 0,0 -172,-29.53 -252.19,0.49 l 4.94,30.68"
         style="fill:#25252b;fill-opacity:1;fill-rule:nonzero;stroke:none"
         id="path432" /><path
         d="m 2856.2,2404.14 c -0.29,-0.1 -0.58,-0.3 -0.98,-0.49 -1.07,-0.49 -2.15,-0.99 -3.33,-1.48 -28.31,-12.44 -89.82,-37.31 -89.82,-37.31 -2.84,-0.99 -6.17,-2.45 -9.5,-4.22 0,0 -0.1,0 -0.1,-0.1 -8.23,-4.21 -16.95,-10.38 -22.14,-15.77 1.86,-30.95 9.7,-63.97 13.22,-99.52 0,0 1.67,-29.48 4.41,-70.33 1.96,-29.28 4.61,-64.45 7.65,-98.83 1.95,-11.76 3.13,-23.8 2.54,-36.14 -0.78,-16.17 -2.06,-33.9 -3.72,-52.32 0,-0.19 0,-0.49 -0.1,-0.68 -0.29,-4.31 -0.79,-8.71 -1.18,-13.23 0,0 0,-0.09 0,-0.19 -3.42,-37.02 -8.22,-76.31 -13.12,-112.06 -1.37,-9.5 -2.65,-18.8 -3.92,-27.72 -6.17,-41.14 -12.34,-74.63 -16.75,-90.41 -1.96,-6.66 5.39,-12.63 10.68,-17.24 l 10.68,-6.27 25.85,-15.37 c 0,0 5.1,61.9 9.51,116.56 0.09,0.78 0.09,1.56 0.19,2.25 0,0.69 0.1,1.37 0.2,1.96 0.59,8.03 1.27,15.77 1.86,23.11 v 0.1 c 0,0.99 0.1,1.87 0.2,2.75 0.09,1.96 0.29,3.91 0.48,5.78 0.89,12.05 1.77,22.53 2.35,30.46 3.53,44.76 16.95,105.01 21.85,163.58 3.23,37.13 7.15,73.86 10.97,106.67 3.82,32.91 7.35,61.9 9.89,83.55 5.58,48.49 12.54,85.42 18.52,111.77 7.63,33.3 13.81,49.86 14.39,51.43 -0.29,-0.1 -0.48,-0.2 -0.78,-0.29"
         style="fill:#5e5f70;fill-opacity:1;fill-rule:nonzero;stroke:none"
         id="path434" /><path
         d="m 2864.54,2378.54 c 0,0 -1.48,-34.4 27.58,-34.41 29.07,-0.03 51.38,28.46 51.38,28.46 l -47.87,-13.71 -30,24.08 -1.09,-4.42"
         style="fill:#cac7d1;fill-opacity:1;fill-rule:nonzero;stroke:none"
         id="path436" /><path
         d="m 2961.39,2406.42 c -34.88,-34.6 -91.02,-7.22 -89.41,2.83 1.56,9.39 0.39,52.32 0.39,52.32 0,0 84.13,24.82 82.3,8.16 -0.72,-6.61 0.22,-18 1.61,-29.33 0.22,-1.94 0.44,-3.88 0.72,-5.77 2,-14.94 4.39,-28.21 4.39,-28.21"
         style="fill:#eea987;fill-opacity:1;fill-rule:nonzero;stroke:none"
         id="path438" /><path
         d="m 2870.29,2376.6 25.34,-17.72 c 0,0 -21.95,43.7 -22.86,61.42 l -2.48,-43.7"
         style="fill:#a09ea6;fill-opacity:1;fill-rule:nonzero;stroke:none"
         id="path440" /><path
         d="m 2872.77,2420.3 -16.58,-16.17 -16.37,-53.51 30.47,25.98 2.48,43.7"
         style="fill:#eae6f2;fill-opacity:1;fill-rule:nonzero;stroke:none"
         id="path442" /><path
         d="m 2876.29,2404.56 c 0,0 7.51,-23.94 19.34,-45.68 0,0 25.47,23.54 33.46,31.9 7.99,8.36 -52.8,13.78 -52.8,13.78"
         style="fill:#eea987;fill-opacity:1;fill-rule:nonzero;stroke:none"
         id="path444" /><path
         d="m 2922.23,2385.15 -26.6,-26.27 c 0,0 32.2,3 38.08,8.54 l -11.48,17.73"
         style="fill:#a09ea6;fill-opacity:1;fill-rule:nonzero;stroke:none"
         id="path446" /><path
         d="m 2957.18,2433.17 c 0,0 -20.89,-36.07 -34.95,-48.02 l 25.28,-39.55 36.94,71.54 -27.27,16.03"
         style="fill:#eae6f2;fill-opacity:1;fill-rule:nonzero;stroke:none"
         id="path448" /><path
         d="m 3049.96,2072.07 c 2.74,40.36 7.05,94.62 11.55,112.07 0,0 5.29,-24.89 10.09,-72.3 0.79,-8.23 -7.74,-22.43 -21.64,-39.77 z m 35.25,-216.57 c -2.74,8.52 -5.58,17.43 -8.32,26.55 -4.6,15.07 -9.01,30.65 -12.93,45.93 -2.35,9.21 -4.51,18.32 -6.46,27.23 0.09,0.1 0.09,0.1 0.09,0.1 0.79,0.89 1.57,1.67 2.36,2.55 l 3.52,3.81 c 51.43,56.23 101.77,114.81 100.4,126.47 -2.15,16.84 -36.04,271.72 -50.64,281.51 -8.03,5.49 -64.26,23.9 -95.9,35.17 -1.66,0.58 -3.23,1.17 -4.8,1.76 -0.39,0.09 -0.68,0.3 -1.17,0.4 -0.39,0.19 -0.88,0.29 -1.37,0.49 -7.15,2.74 -21.16,8.12 -25.57,9.69 -0.1,-0.1 -0.29,-0.39 -0.29,-0.58 h -0.1 c -0.78,-1.19 -2.06,-3.64 -3.62,-7.16 -0.1,-0.2 -0.1,-0.39 -0.2,-0.49 -14.11,-31.64 -54.27,-143.69 -56.62,-232.73 -0.78,-30.95 8.23,-96.2 15.09,-149.38 3.03,-22.72 6.07,-43.4 9.01,-63.09 -22.04,-22.13 -40.84,-41.33 -49.66,-53.08 l -0.1,-0.1 c -4.12,-5.58 -6.07,-9.5 -5.09,-11.17 0.68,-1.08 2.25,-2.65 4.5,-4.7 0.88,-0.79 1.77,-1.47 2.75,-2.45 h 0.1 c 10.86,-9.31 31.05,-24 44.37,-33.51 1.56,-1.07 3.03,-2.14 4.4,-3.12 3.53,-2.45 6.17,-4.41 7.55,-5.39 0.78,-0.49 1.17,-0.78 1.17,-0.78 l 2.94,3.03 c 0.68,0.59 1.37,1.37 2.25,2.25 0.3,-2.16 0.49,-4.31 0.79,-6.37 0.68,-5.47 1.36,-10.77 2.05,-16.06 0.5,-3.72 0.88,-7.54 1.37,-11.16 v -0.39 c 8.04,-64.85 13.33,-110.6 13.33,-110.6 l 92.27,44.08 c 0.78,0.39 1.56,0.88 2.35,1.38 14.59,9.7 32.42,38.89 26.55,53.87 -5.2,13.51 -10.78,29.19 -16.37,46.04"
         style="fill:#5e5f70;fill-opacity:1;fill-rule:nonzero;stroke:none"
         id="path450" /><path
         d="m 2854.34,1812.06 61.88,1.65 -1.23,46 -61.87,-1.65 1.22,-46"
         style="fill:#3a4066;fill-opacity:1;fill-rule:nonzero;stroke:none"
         id="path452" /><path
         d="m 3064.01,1927.99 -83.2,-54.6 -1.58,-1.03 78.24,82.99 c 0.07,0 0.07,0 0.15,0 0,-0.07 -0.07,-0.08 -0.15,-0.16 2,-8.89 4.15,-18.01 6.54,-27.2"
         style="fill:#3b3d47;fill-opacity:1;fill-rule:nonzero;stroke:none"
         id="path454" /><path
         d="m 2957,2434.63 c -34.77,-25.16 -67.36,12.28 -68.75,14.11 37.8,-24.75 67.98,-8.34 67.98,-8.34 h 0.05 c 0.22,-1.94 0.44,-3.88 0.72,-5.77"
         style="fill:#a77860;fill-opacity:1;fill-rule:nonzero;stroke:none"
         id="path456" /><path
         d="m 3772.5,2280.47 -4.5,-29.7 c -1.9,0.3 -202.7,24 -518.8,-319 -70.4,-76.4 -170.7,-111.1 -298.3,-103.1 -248.1,15.5 -516.8,187.9 -600.1,304.7 -57,79.7 -124.3,121.5 -200.3,124.2 -142.4,5 -323,-123.2 -537.1,-381.5 -71.4,-86.1 -133.7,-126.3 -190.3,-122.4 -76.2,5.09 -128,87.8 -178.1,167.8 -49.7,79.5 -101.1,161.6 -173.1,167.1 -58.8,4.3 -128.502,-41.2 -212.798,-139.4 -133.903,-156 -285.704,-240.2 -451.204,-250.3 -11.503,-0.7 -22.898,-1.1 -34.199,-1.1 -158.5,0 -292.699,66.5 -373.699,118.8 v 36.6 c 80.6016,-54.41 231.699,-135.2 406.395,-124.41 156.902,9.71 301.601,90.41 429.906,239.91 91,106 168.799,155 237.899,149.8 87.1,-6.6 142.6,-95.3 196.3,-181.1 48.1,-77 93.6,-149.7 154.6,-153.7 46.3,-3.1 100.4,33.39 165.2,111.5 223.5,269.6 406.9,398.1 561.3,392.4 85.7,-3.1 161,-49.1 223.6,-136.8 78,-109.3 341.8,-277.5 577.6,-292.2 118,-7.31 210.4,24.1 274.4,93.6 328.6,356.5 536.6,329.6 545.3,328.3"
         style="fill:#bcc0cf;fill-opacity:1;fill-rule:nonzero;stroke:none"
         id="path458" /><path
         d="m 3857.41,1935.22 216.43,48.64 -143.36,637.94 -216.43,-48.64 c -121.84,-27.38 -198.42,-148.35 -171.04,-270.2 l 44.21,-196.71 c 27.38,-121.83 148.35,-198.41 270.19,-171.03"
         style="fill:#dbdff0;fill-opacity:1;fill-rule:nonzero;stroke:none"
         id="path460" /><path
         d="m 3612.12,2128.81 -57.06,-12.82 -36.95,164.41 57.07,12.84 36.94,-164.43"
         style="fill:#dbdff0;fill-opacity:1;fill-rule:nonzero;stroke:none"
         id="path462" /><path
         d="m 2916.9,1785.76 c 0,0 6.58,5.13 8.36,8.79 0,0 2.73,6.88 4.97,11.67 0.72,1.51 1.38,2.81 1.89,3.61 2.14,3.33 7.83,10.01 10.72,19.45 2.89,9.44 9.73,43.81 9.73,43.81 l -28.26,11.02 -20.88,16 c 0,0 -45.02,-39.61 -48.73,-48.08 -0.36,-0.83 -0.68,-1.67 -0.93,-2.48 -2.44,-7.49 -1.11,-14.09 -1.95,-18.16 -0.3,-1.49 -2.26,-16.59 0.85,-19.92 4.3,-4.62 9.15,-6.08 13.42,-5.36 0,0 8.82,-8.68 17.12,-9.44 0,0 7.87,-8.27 18.46,-6.27 0,0 8.94,-7.49 15.23,-4.64"
         style="fill:#efaa88;fill-opacity:1;fill-rule:nonzero;stroke:none"
         id="path464" /><path
         d="m 2957.64,1849.38 c 0,0 -45.72,29.64 -68.3,52.17 l 99.29,103.42 74.8,-43.3 -105.79,-112.29"
         style="fill:#5e5f70;fill-opacity:1;fill-rule:nonzero;stroke:none"
         id="path466" /><path
         d="m 2381.67,2095 c 0,0 38.5,11.58 41.13,5.6 2.63,-5.97 -0.03,-9.76 -0.03,-9.76 l 18.01,-2.42 c 0,0 11.02,-8.34 -1.28,-17.9 0,0 11.09,-6.72 -1.88,-14.54 0,0 5.34,-7.69 -0.03,-12.38 -5.37,-4.68 -30.45,-11.1 -30.45,-11.1 0,0 -5.9,1.03 -6.7,11.19 0,0 -9.04,3.38 -8.71,13.06 0,0 -6.82,3.85 -6.36,14.31 0,0 -14.54,9.75 -7.6,22.5 0,0 2.28,0.97 3.9,1.44"
         style="fill:#db9c7c;fill-opacity:1;fill-rule:nonzero;stroke:none"
         id="path468" /><path
         d="m 2443.54,2120.62 c 0,0 -19.89,-19.11 -26.17,-34.32 -1.42,-3.43 -2.16,-7.03 0.5,-9.65 2.65,-2.61 9.82,-2.09 18.85,5.76 9.04,7.84 24.31,13.83 24.31,13.83 0,0 6.93,10.79 -17.49,24.38"
         style="fill:#eea886;fill-opacity:1;fill-rule:nonzero;stroke:none"
         id="path470" /><path
         d="m 2002.35,2225.23 c 0,0 -38.03,8.93 -40.23,2.99 -2.19,-5.95 0.6,-9.47 0.6,-9.47 l -17.31,-3.41 c 0,0 -10.2,-8.74 2.3,-17.3 0,0 -10.36,-7.17 2.69,-13.98 0,0 -4.73,-7.8 0.76,-12.01 5.49,-4.22 30.2,-8.96 30.2,-8.96 0,0 5.67,1.34 5.83,11.25 0,0 8.57,3.82 7.67,13.19 0,0 6.39,4.13 5.33,14.25 0,0 13.52,10.33 6.03,22.28 0,0 -2.26,0.81 -3.87,1.17"
         style="fill:#db9c7c;fill-opacity:1;fill-rule:nonzero;stroke:none"
         id="path472" /><path
         d="m 1940.81,2246.4 c 0,0 20.44,-17.35 27.43,-31.73 1.58,-3.25 2.52,-6.7 0.09,-9.38 -2.42,-2.7 -9.4,-2.61 -18.63,4.45 -9.24,7.07 -24.41,11.98 -24.41,11.98 0,0 -7.36,10.05 15.52,24.68"
         style="fill:#eea886;fill-opacity:1;fill-rule:nonzero;stroke:none"
         id="path474" /><path
         d="m 1671.1,1914.09 c 0,0 -7.33,0.86 -10.35,2.8 0,0 -5.23,3.94 -9.11,6.52 -1.24,0.82 -2.34,1.51 -3.09,1.87 -3.15,1.54 -10.51,3.96 -17.04,9.77 -6.51,5.8 -27.47,28.64 -27.47,28.64 l 16.3,21.3 12.62,16.99 c 0,0 48.01,-4.55 54.71,-9.25 0.66,-0.47 1.28,-0.95 1.83,-1.45 5.29,-4.54 7.32,-10.13 9.82,-12.82 0.91,-0.99 9.33,-11.5 8.51,-15.45 -1.13,-5.47 -4.12,-8.8 -7.68,-10.21 0,0 -2.67,-10.61 -8.6,-14.99 0,0 -2.16,-9.87 -11.08,-13.22 0,0 -3.31,-9.76 -9.37,-10.5"
         style="fill:#eea886;fill-opacity:1;fill-rule:nonzero;stroke:none"
         id="path476" /><path
         d="m 1379.92,2390.5 c 0,0 -56.33,-35.31 -61.24,-94.28 -4.92,-58.96 3.85,-79.57 10.38,-104.62 6.16,-23.66 12.58,-89.62 13.76,-96.53 1.18,-6.9 4.86,-96.56 30.73,-116.57 26.02,-20.11 232.72,-29.94 234.18,-36.15 1.46,-6.22 12.86,65.8 12.86,65.8 0,0 -109.09,8.32 -123.58,14.66 -23.56,10.31 -65.84,14.33 -67.64,38.59 -2.13,28.5 -12.39,123.32 -11.75,138.11 0.65,14.77 5.93,190.76 -37.7,190.99"
         style="fill:#ffa15b;fill-opacity:1;fill-rule:nonzero;stroke:none"
         id="path478" /><path
         d="m 633.477,1748.33 c 0,0 -6.907,4 -9.067,7.22 0,0 -3.492,6.16 -6.234,10.4 -0.875,1.34 -1.672,2.48 -2.262,3.18 -2.461,2.87 -8.723,8.44 -12.691,17.02 -3.977,8.54 -11.606,49.87 -11.606,49.87 l 21.16,10.46 18.418,12.63 c 0,0 47.883,-32.36 52.504,-39.91 0.446,-0.74 0.867,-1.49 1.199,-2.21 3.293,-6.78 2.899,-13.2 4.227,-16.95 0.477,-1.37 4.309,-15.42 1.805,-18.97 -3.469,-4.94 -7.879,-6.95 -12.008,-6.83 0,0 -7.219,-9.37 -14.973,-11.17 0,0 -6.383,-8.86 -16.668,-8.35 0,0 -7.476,-8.26 -13.804,-6.39"
         style="fill:#eea886;fill-opacity:1;fill-rule:nonzero;stroke:none"
         id="path480" /><path
         d="m 429.641,2385.95 c 11.777,2.19 72.961,-15.56 60.082,-67.7 -13.821,-55.96 -25.582,-143.67 -25.582,-161.95 0,-15.28 -12.188,-108.19 12.086,-136.25 8.574,-9.91 72.66,-79.76 76.289,-85.72 3.629,-5.96 100.14,-86.21 100.14,-86.21 l -65.015,-47.44 c 0,0 -161.934,143.36 -174.121,157.6 -12.188,14.23 -38.891,34.89 -51.375,81.79 -20.051,75.32 -2.161,175 -3.02,202.42 -0.309,9.84 6.301,131.5 70.516,143.46"
         style="fill:#67aaf5;fill-opacity:1;fill-rule:nonzero;stroke:none"
         id="path482" /><path
         d="m 958.375,2042.8 c 0,0 -33.656,10.66 -43.547,4.27 -9.887,-6.37 2.059,-10.88 2.059,-10.88 0,0 -11.742,4.64 -16.289,-4.14 -4.547,-8.79 9.707,-13.34 9.707,-13.34 0,0 -9.813,1.19 -10.953,-9.11 -1.145,-10.28 11.492,-11.41 11.492,-11.41 0,0 -14.598,-5.91 -5.281,-15.19 15.738,-15.66 41.179,-12.32 41.179,-12.32 0,0 6.035,1.37 6.438,11.37 0,0 15.086,2.38 9.996,18.97 0,0 12.683,11.81 1.133,20.79 0,0 12.738,13.37 -5.934,20.99"
         style="fill:#db9c7c;fill-opacity:1;fill-rule:nonzero;stroke:none"
         id="path484" /></g></g></svg>
